<?xml version="1.0" encoding="utf-8"?>
<!-- Svg Vector Icons : http://www.onlinewebfonts.com/icon -->
<!DOCTYPE svg PUBLIC "-//W3C//DTD SVG 1.1//EN" "http://www.w3.org/Graphics/SVG/1.1/DTD/svg11.dtd">
<svg version="1.1" xmlns="http://www.w3.org/2000/svg" xmlns:xlink="http://www.w3.org/1999/xlink" x="0px" y="0px" viewBox="0 0 1000 1000" enable-background="new 0 0 1000 1000" xml:space="preserve">
<metadata> Svg Vector Icons : http://www.onlinewebfonts.com/icon </metadata>
<g><g transform="translate(0.000000,511.000000) scale(0.100000,-0.100000)"><path d="M1577.7,4983.7c-407.3-113.8-676.9-531.1-603-930.4c47.9-255.6,83.9-305.5,634.9-858.6l511.1-511.1l-69.9-107.8c-181.7-285.5-369.4-744.7-443.3-1088.2l-34-163.7l-233.6-8c-207.7-6-245.6-14-361.4-67.9c-163.7-77.9-289.5-201.7-367.4-367.4c-53.9-113.8-61.9-151.7-61.9-299.5c0-149.7,8-185.7,63.9-303.5c33.9-71.9,99.8-169.7,145.7-215.6c81.9-81.9,295.5-199.7,365.4-199.7c22,0,33.9-16,33.9-49.9c0-189.7,245.6-3847.5,261.6-3913.4c59.9-219.6,279.5-489.2,485.2-587C2120.8-4793.9,2001-4790,4992-4790c3034.9,0,2887.2-6,3118.8,111.8c57.9,30,153.7,101.8,215.6,159.7c189.7,179.7,265.5,367.4,287.5,696.8c17.9,263.6,231.6,3649.9,231.6,3667.9c0,8,16,16,35.9,16c79.9,0,283.5,123.8,381.4,231.6c131.8,143.7,187.7,291.5,187.7,487.2c-2,289.5-155.7,533.1-419.3,662.9c-119.8,57.9-149.8,63.9-367.4,71.9c-237.6,8-237.6,8-249.6,61.9c-183.7,812.6-523.1,1425.6-1060.3,1916.8c-830.6,760.7-1956.7,1072.2-3060.8,848.6c-199.7-39.9-569-165.7-780.7-263.5l-173.7-79.9l-525.1,529.1c-467.2,467.2-543.1,535.1-668.9,597C1971.1,5011.6,1759.4,5033.6,1577.7,4983.7z M1977.1,4568.4c39.9-20,439.3-403.3,906.5-870.5l836.6-838.6l-85.9-115.8c-47.9-63.9-177.7-207.6-287.5-321.5l-199.7-205.7l-846.6,844.6c-479.2,479.2-864.6,878.5-888.5,924.4c-65.9,125.8-59.9,295.5,16,419.3c81.9,133.8,235.6,217.6,379.4,205.7C1863.3,4604.3,1939.1,4586.3,1977.1,4568.4z M5607,3757.7c1158-245.6,2050.6-1086.2,2360-2218.3c22-81.9,40-165.7,40-183.7c0-33.9-143.8-35.9-3015-35.9c-1657.2,0-3014.9,2-3014.9,6c0,39.9,119.8,427.3,173.7,563.1c75.9,191.7,215.6,461.2,249.6,481.2c24,16,439.3-391.3,429.3-421.3c-4-10-55.9-59.9-115.8-107.8c-59.9-47.9-117.8-105.8-131.8-129.8c-73.9-125.8,28-291.5,179.7-291.5c175.7,0,992.3,782.7,1309.8,1255.9c175.7,259.6,297.5,551.1,273.5,650.9c-49.9,199.7-305.5,199.7-381.4,0c-20-49.9-39.9-89.8-47.9-89.8c-16,0-261.6,245.6-261.6,261.6c0,20,253.6,121.8,451.2,183.7c149.8,47.9,393.3,99.8,567.1,121.8C4844.3,3825.6,5425.3,3797.7,5607,3757.7z M8857.5,882.5c207.7-93.8,261.6-345.4,113.8-523.1C8865.5,233.6,9141.1,241.6,5004,241.6c-2619.6,0-3799.6,6-3839.6,22c-79.9,29.9-181.7,133.8-207.6,213.6c-51.9,157.8,55.9,377.4,209.6,421.3c35.9,10,1639.3,18,3835.6,20C8633.9,920.5,8779.7,918.5,8857.5,882.5z M8446.2-165.7c0-6-18-285.5-39.9-625c-22-337.4-75.9-1194-119.8-1902.8c-79.9-1257.9-81.8-1289.8-131.8-1391.7c-28-57.9-85.9-135.8-131.8-173.7c-163.7-139.8,35.9-131.8-3020.9-131.8c-3076.8,0-2859.2-10-3030.9,139.8c-109.8,95.8-169.7,231.6-183.7,411.3c-14,163.7-229.6,3596-229.6,3647.9c0,32,177.7,33.9,3444.2,33.9C6896.8-157.7,8446.2-161.7,8446.2-165.7z"/><path d="M6363.7,2881.2c-42-43.9-53.9-75.9-53.9-141.8c0-83.8,8-93.8,245.6-333.4c227.6-229.6,249.6-247.6,319.5-247.6c109.8,0,193.7,85.8,193.7,199.7c0,77.9-12,95.8-203.7,295.5c-261.5,275.5-269.5,283.5-367.4,283.5C6435.6,2937.1,6405.6,2925.1,6363.7,2881.2z"/><path d="M6297.8,2266.2c-69.9-33.9-107.8-99.8-107.8-185.7c0-73.9,161.7-295.5,235.6-323.5c121.8-47.9,269.6,49.9,269.6,181.7c0,65.9-123.8,265.6-193.7,309.5C6431.6,2294.2,6363.7,2300.2,6297.8,2266.2z"/></g></g>
</svg>