<svg xmlns="http://www.w3.org/2000/svg" height="512pt" version="1.1" viewBox="0 0 512 512" width="512pt">
<g id="surface1">
<path d="M 512 256 C 512 397.386719 397.386719 512 256 512 C 114.613281 512 0 397.386719 0 256 C 0 114.613281 114.613281 0 256 0 C 397.386719 0 512 114.613281 512 256 Z M 512 256 " style=" stroke:none;fill-rule:nonzero;fill:rgb(15.686275%,39.215686%,94.117647%);fill-opacity:1;" />
<path d="M 511.40625 273.300781 L 300.1875 62.082031 L 256 452 L 310.226562 506.226562 C 420.097656 482.527344 503.730469 388.316406 511.40625 273.300781 Z M 511.40625 273.300781 " style=" stroke:none;fill-rule:nonzero;fill:rgb(0%,32.54902%,74.901961%);fill-opacity:1;" />
<path d="M 318.066406 105.664062 C 318.066406 139.941406 290.277344 167.730469 256 167.730469 C 221.722656 167.730469 193.933594 139.941406 193.933594 105.664062 C 193.933594 71.386719 221.722656 43.597656 256 43.597656 C 290.277344 43.597656 318.066406 71.386719 318.066406 105.664062 Z M 318.066406 105.664062 " style=" stroke:none;fill-rule:nonzero;fill:rgb(100%,100%,100%);fill-opacity:1;" />
<path d="M 256 43.597656 C 255.921875 43.597656 255.84375 43.601562 255.761719 43.601562 L 255.761719 167.726562 C 255.84375 167.726562 255.921875 167.730469 256 167.730469 C 290.277344 167.730469 318.066406 139.941406 318.066406 105.664062 C 318.066406 71.386719 290.277344 43.597656 256 43.597656 Z M 256 43.597656 " style=" stroke:none;fill-rule:nonzero;fill:rgb(86.27451%,88.235294%,92.156863%);fill-opacity:1;" />
<path d="M 270.867188 167.730469 C 270.867188 202.011719 243.078125 229.800781 208.796875 229.800781 C 174.519531 229.800781 146.730469 202.011719 146.730469 167.730469 C 146.730469 133.453125 174.519531 105.664062 208.796875 105.664062 C 243.078125 105.664062 270.867188 133.453125 270.867188 167.730469 Z M 270.867188 167.730469 " style=" stroke:none;fill-rule:nonzero;fill:rgb(100%,27.45098%,54.901961%);fill-opacity:1;" />
<path d="M 208.796875 105.664062 C 208.777344 105.664062 208.757812 105.664062 208.738281 105.664062 L 208.738281 229.796875 C 208.757812 229.796875 208.777344 229.800781 208.796875 229.800781 C 243.078125 229.800781 270.867188 202.011719 270.867188 167.730469 C 270.867188 133.453125 243.078125 105.664062 208.796875 105.664062 Z M 208.796875 105.664062 " style=" stroke:none;fill-rule:nonzero;fill:rgb(84.313725%,15.686275%,47.058824%);fill-opacity:1;" />
<path d="M 365.269531 167.730469 C 365.269531 202.011719 337.480469 229.800781 303.203125 229.800781 C 268.921875 229.800781 241.132812 202.011719 241.132812 167.730469 C 241.132812 133.453125 268.921875 105.664062 303.203125 105.664062 C 337.480469 105.664062 365.269531 133.453125 365.269531 167.730469 Z M 365.269531 167.730469 " style=" stroke:none;fill-rule:nonzero;fill:rgb(39.215686%,88.235294%,86.27451%);fill-opacity:1;" />
<path d="M 303.203125 105.664062 C 303.0625 105.664062 302.925781 105.675781 302.785156 105.675781 L 302.785156 229.789062 C 302.925781 229.789062 303.0625 229.800781 303.203125 229.800781 C 337.480469 229.800781 365.269531 202.011719 365.269531 167.730469 C 365.269531 133.453125 337.480469 105.664062 303.203125 105.664062 Z M 303.203125 105.664062 " style=" stroke:none;fill-rule:nonzero;fill:rgb(0%,78.431373%,78.431373%);fill-opacity:1;" />
<path d="M 256 452 L 154.882812 198.5 L 357.117188 198.5 Z M 256 452 " style=" stroke:none;fill-rule:nonzero;fill:rgb(100%,85.490196%,0%);fill-opacity:1;" />
<path d="M 256 452 L 357.117188 198.5 L 255.761719 198.5 Z M 256 452 " style=" stroke:none;fill-rule:nonzero;fill:rgb(100%,73.72549%,21.176471%);fill-opacity:1;" />
</g>
</svg>