<svg viewBox="0 0 591 227" xmlns="http://www.w3.org/2000/svg" fill-rule="evenodd" clip-rule="evenodd" stroke-linecap="round" stroke-linejoin="round" stroke-miterlimit="10"><path d="M285.79 175.137a42.005 42.005 0 0 1 1.898-2.357 48.31 48.31 0 0 1 1.022-1.156 34.71 34.71 0 0 1 1.108-1.1 25.123 25.123 0 0 1 2.468-2.086 12.477 12.477 0 0 1 3.12-1.715 8.526 8.526 0 0 1 2.034-.486 6.667 6.667 0 0 1 2.42.2 6.485 6.485 0 0 1 2.279 1.17 7.696 7.696 0 0 1 1.567 1.701c.201.298.376.595.539.892.193.376.356.756.473 1.108.242.714.374 1.376.461 2.018.165 1.285.16 2.471.003 3.744a102.35 102.35 0 0 1-.95 6.08c-.36 2.012-.876 3.99-1.39 5.955-1.035 3.935-2.319 7.725-3.594 11.412l-.08.23a3.788 3.788 0 1 1-7.083-2.68c1.517-3.686 3.053-7.263 4.384-10.87a94.888 94.888 0 0 0 3.348-10.992 9.389 9.389 0 0 0 .219-2.351 5.913 5.913 0 0 0-.126-1.04c-.031-.152-.073-.273-.111-.387a5.792 5.792 0 0 0-.225-.472c-.331-.592-.677-.935-1.091-1.108-.416-.183-1.07-.197-1.816-.006-1.507.382-3.138 1.365-4.646 2.454-1.527 1.106-2.975 2.368-4.442 3.684a1.28 1.28 0 0 1-1.884-1.714l.095-.128z" fill="#38170f" fill-rule="nonzero"/><path d="M301.135 174.739a28.505 28.505 0 0 1 1.966-2.367 25.225 25.225 0 0 1 2.223-2.2 20.794 20.794 0 0 1 2.578-1.964 13.409 13.409 0 0 1 3.175-1.553c1.2-.384 2.659-.659 4.285-.29.8.18 1.607.52 2.298.989a7.585 7.585 0 0 1 1.742 1.62c.233.297.432.598.617.899l.258.451c.09.172.191.381.27.566.317.75.487 1.44.606 2.1.223 1.32.246 2.521.136 3.774l-.052.476-.055.421-.096.744-.2 1.486-.433 2.974c-.284 1.986-.705 3.947-1.1 5.902-.796 3.915-1.727 7.721-2.677 11.493l-.043.175a3.785 3.785 0 1 1-7.32-1.93c1.056-3.829 2.171-7.608 3.28-11.326.543-1.864 1.061-3.726 1.547-5.6l.705-2.818.338-1.414.165-.71a8.862 8.862 0 0 0 .235-2.826 4.594 4.594 0 0 0-.155-.867l-.05-.148-.101-.221a4.099 4.099 0 0 0-.218-.391c-.302-.484-.57-.733-.98-.902-.409-.17-1.061-.197-1.796-.055-1.485.3-3.17 1.095-4.736 2.059a43.213 43.213 0 0 0-4.623 3.295 1.285 1.285 0 0 1-1.857-1.75l.068-.092zM176.525 151.906c-.056-.108-.105-.072-.011-.094.083-.006.297-.016.566-.121.535-.206 1.223-.714 1.894-1.344 1.322-1.286 2.61-3.12 3.187-5.07.158-.484.249-.977.285-1.455.034-.476.06-.954-.031-1.38-.144-.87-.555-1.534-1.169-1.947-.623-.415-1.516-.56-2.502-.503-1.031.038-2.045.322-3.025.694-1.944.818-3.72 2.184-5.19 3.873-1.504 1.656-2.753 3.59-3.841 5.61-1.104 2.015-2.001 4.155-2.885 6.278-.847 2.147-1.614 4.317-2.374 6.477-.365 1.087-.752 2.162-1.089 3.254-.377 1.076-.695 2.172-1.036 3.256a86.96 86.96 0 0 0-1.718 6.543c-.522 2.173-.833 4.359-1.07 6.48a28.673 28.673 0 0 0-.05 6.063c.218 1.87.722 3.462 1.497 4.568a4.984 4.984 0 0 0 1.488 1.41c.62.384 1.396.682 2.298.85.229.049.443.078.708.11l.834.059c.556.026 1.116.052 1.674.045 1.12.009 2.24-.073 3.362-.203 2.236-.301 4.438-.92 6.576-1.762a31.4 31.4 0 0 0 6.064-3.363c1.905-1.348 3.72-2.874 5.32-4.614 3.189-3.453 5.894-7.567 7.21-11.992.319-1.095.557-2.206.622-3.267.083-1.05-.044-2.083-.382-2.718-.164-.322-.348-.523-.573-.657-.223-.137-.521-.23-.915-.254a4.94 4.94 0 0 0-.694.008 5.956 5.956 0 0 0-.721.093c-.471.086-.917.23-1.332.425a4.817 4.817 0 0 0-2.021 1.777c-.482.77-.74 1.697-.71 2.51.015.404.106.768.24 1.034.136.27.296.426.486.532.19.107.453.177.812.177.061.003.256-.006.388-.01l.437-.02.867-.071c2.303-.23 4.45-.803 6.39-1.817 1.954-.998 3.741-2.53 6.062-4.039.581-.369 1.188-.734 1.83-1.059.323-.163.65-.317.985-.464.165-.076.337-.14.506-.211l.254-.103a5.444 5.444 0 0 1 4.19.12 5.568 5.568 0 0 1 2.705 2.645c.581 1.162.71 2.632.323 3.912a5.893 5.893 0 0 1-.355.909l-.218.404-.112.196-.442.789c-.581 1.058-1.184 2.104-1.739 3.175-1.13 2.13-2.127 4.32-3.038 6.5-.91 2.173-1.686 4.392-2.101 6.535-.206 1.067-.325 2.11-.291 3.043.027.936.23 1.712.525 2.246.277.542.694.955 1.433 1.297.726.34 1.714.514 2.768.612l-.215.01c.027.009.225-.005.353-.016a10.17 10.17 0 0 0 1.36-.222c.609-.14 1.211-.328 1.789-.567a10.102 10.102 0 0 0 3.106-2.012c1.796-1.723 2.831-4.334 3.118-7.166l.003-.024a1.007 1.007 0 0 1 2.006.024c.122 1.573.05 3.203-.317 4.829-.358 1.622-1.038 3.249-2.072 4.668-1.027 1.422-2.37 2.631-3.868 3.548a15.904 15.904 0 0 1-4.263 1.82c-.242.059-.413.107-.77.161l-.23.01c-1.454.091-3.022.119-4.742-.359a9.75 9.75 0 0 1-2.586-1.15 8.666 8.666 0 0 1-2.24-2.088c-1.222-1.671-1.787-3.538-2.005-5.203-.11-.84-.144-1.651-.118-2.434.018-.784.085-1.543.194-2.275a34.47 34.47 0 0 1 .883-4.205c.374-1.344.836-2.63 1.316-3.894.47-1.268 1.043-2.477 1.611-3.677a56.273 56.273 0 0 1 1.832-3.513c.65-1.144 1.298-2.285 2.012-3.39l.538-.828.136-.206s-.028.055-.035.083a1.673 1.673 0 0 0 .064 1.434c.179.308.413.51.739.637.317.138.757.12.983.022.017-.004.074-.03.055-.027l-.168.054c-.112.038-.226.067-.337.111-.225.077-.45.163-.675.256-.452.188-.92.386-1.398.627-.96.476-1.994 1.094-3.14 1.75-1.154.655-2.422 1.338-3.792 1.889-2.738 1.148-5.724 1.645-8.495 1.67l-1.04-.004-1.101-.028c-1.009-.044-2.169-.319-3.196-.98-1.032-.648-1.822-1.647-2.251-2.648a7.462 7.462 0 0 1-.61-2.954c.003-1.887.591-3.59 1.549-5.05a9.53 9.53 0 0 1 3.899-3.415 9.983 9.983 0 0 1 2.44-.788c.413-.08.826-.13 1.236-.16.42-.027.775-.043 1.293-.018.961.044 2.068.299 3.067.91 1.008.6 1.788 1.532 2.253 2.44.477.918.713 1.82.847 2.665.14.847.166 1.643.148 2.417-.042 1.545-.3 2.97-.642 4.35-.7 2.746-1.797 5.266-3.072 7.675a42.315 42.315 0 0 1-4.54 6.77c-1.72 2.117-3.7 4.025-5.842 5.757a37.923 37.923 0 0 1-6.992 4.489c-2.52 1.205-5.19 2.147-7.944 2.74a34.74 34.74 0 0 1-4.168.657c-.7.076-1.403.112-2.104.146l-1.053.029c-.364.002-.783.003-1.182-.022-1.608-.075-3.308-.386-4.955-1.043a13.572 13.572 0 0 1-4.472-2.903c-1.273-1.24-2.252-2.675-2.985-4.126a20.68 20.68 0 0 1-1.586-4.4c-.708-2.924-.876-5.769-.82-8.536.065-2.768.385-5.462.86-8.104.97-5.279 2.549-10.351 4.599-15.247 2.074-4.886 4.63-9.601 7.973-13.965 1.682-2.174 3.566-4.263 5.8-6.14 2.234-1.86 4.842-3.554 7.994-4.554 1.568-.494 3.266-.8 5-.815a12.53 12.53 0 0 1 2.933.305c1.032.233 2.129.656 3.145 1.302a9.43 9.43 0 0 1 2.615 2.468c.697.957 1.16 1.975 1.48 2.958.626 1.978.691 3.8.572 5.491a19.931 19.931 0 0 1-.995 4.793 20.798 20.798 0 0 1-2.06 4.383c-.884 1.403-1.96 2.778-3.499 4.016a10.993 10.993 0 0 1-2.745 1.63 9.642 9.642 0 0 1-3.632.733 4.77 4.77 0 1 1 0-9.542M276.912 198.327c.292-.5.609-.94.887-1.519l.432-.824.404-.876a53.865 53.865 0 0 0 1.502-3.638c.937-2.488 1.77-5.05 2.528-7.631.76-2.583 1.43-5.197 2.004-7.812.566-2.604 1.058-5.259 1.254-7.736a2.112 2.112 0 0 1 4.218.203l-.002.08c-.06 2.9-.419 5.686-.845 8.466-.437 2.777-.967 5.53-1.595 8.269a112.092 112.092 0 0 1-2.181 8.196 58.044 58.044 0 0 1-1.424 4.11l-.41 1.035-.476 1.053c-.287.69-.732 1.44-1.131 2.166a3.124 3.124 0 0 1-5.475-3.01l.034-.059.276-.473z" fill="#38170f" fill-rule="nonzero"/><path d="M278.15 169.99l-1.246 2.652-1.213 2.723c-.81 1.817-1.507 3.677-2.242 5.514a69.62 69.62 0 0 0-1.884 5.6c-.603 1.864-1.051 3.782-1.458 5.634a24.32 24.32 0 0 0-.408 2.726c-.081.87-.085 1.72.041 2.38.061.33.149.607.252.808.107.203.207.354.378.485.165.135.41.255.735.333.158.043.339.069.526.09.178.02.32.025.501.022.706-.023 1.553-.27 2.365-.635.816-.37 1.623-.848 2.391-1.393a14.456 14.456 0 0 0 2.133-1.86c.647-.679 1.224-1.434 1.574-2.232a.828.828 0 0 1 1.575.469c-.406 2.39-1.767 4.284-3.304 5.932a14.029 14.029 0 0 1-2.665 2.221c-1.002.651-2.134 1.194-3.534 1.47a7.75 7.75 0 0 1-2.149.082 6.26 6.26 0 0 1-2.306-.666c-.779-.392-1.478-1.016-1.984-1.694a6.843 6.843 0 0 1-1.058-2.085c-.81-2.74-.568-5.021-.292-7.23.153-1.098.343-2.172.577-3.222l.35-1.579.403-1.557a73.973 73.973 0 0 1 2.01-6.073c.741-1.991 1.621-3.92 2.536-5.827a47.64 47.64 0 0 1 1.46-2.819 68.738 68.738 0 0 1 1.626-2.792 2.495 2.495 0 0 1 4.38 2.372l-.07.152z" fill="#38170f" fill-rule="nonzero"/><path d="M269.607 179.064c.335-1.322.551-2.818.465-4.181a8.476 8.476 0 0 0-.324-1.954 4.247 4.247 0 0 0-.823-1.527c-.346-.41-.78-.687-1.277-.884-.486-.181-1.103-.332-1.634-.265-1.072.099-2.09.59-3.004 1.405-.911.81-1.714 1.854-2.45 2.966-.718 1.135-1.37 2.342-1.999 3.575-.613 1.241-1.227 2.498-1.772 3.792-.265.65-.581 1.279-.847 1.932-.257.655-.55 1.298-.82 1.951-1.071 2.607-1.847 5.366-2.231 7.967-.198 1.276-.22 2.579.018 3.366.13.383.187.58.405.821l.1.092.218.1c.146.073.294.122.445.187.302.11.614.209.934.263 1.294.316 2.683-.058 3.898-.723 1.24-.648 2.35-1.601 3.335-2.675.975-1.087 1.803-2.319 2.553-3.592.384-.633.69-1.312.995-1.984.299-.667.588-1.38.774-2.037a.902.902 0 0 1 1.746.458l-.05.205a30.64 30.64 0 0 1-1.513 4.552c-.628 1.488-1.376 2.957-2.33 4.372-.957 1.41-2.12 2.783-3.663 3.946-1.528 1.151-3.51 2.09-5.708 2.357-.547.077-1.097.093-1.647.082-.272-.015-.55-.02-.818-.051l-.407-.042a6.011 6.011 0 0 1-.635-.142 6.749 6.749 0 0 1-2.416-1.258 7.108 7.108 0 0 1-1.6-1.867c-.753-1.281-1.091-2.444-1.29-3.52a16.137 16.137 0 0 1-.224-3.01c.131-3.757.978-7.012 2.065-10.192 1.11-3.163 2.621-6.139 4.446-8.999a33.436 33.436 0 0 1 3.142-4.138c1.19-1.33 2.6-2.563 4.354-3.562a10.56 10.56 0 0 1 2.947-1.153 8.937 8.937 0 0 1 3.397-.128 9.334 9.334 0 0 1 3.163 1.105c1 .57 1.936 1.415 2.51 2.416.586.989.921 2.023 1.022 3.004.095.979.07 1.896-.094 2.766a12.36 12.36 0 0 1-1.846 4.685l-.09.14a.786.786 0 0 1-1.42-.62" fill="#38170f" fill-rule="nonzero"/><path d="M220.768 183.567c1.024.081 2.05.098 3.072.06 1.022-.04 2.045-.089 3.053-.24 2.013-.306 3.991-.79 5.856-1.514 1.84-.77 3.586-1.765 4.96-3.082.683-.654 1.282-1.37 1.74-2.127a5.728 5.728 0 0 0 .818-2.32c.084-.75-.055-1.408-.35-1.876-.294-.474-.762-.768-1.354-.974a5.371 5.371 0 0 0-2.124-.211 7.96 7.96 0 0 0-2.283.553c-2.903 1.18-5.215 4.025-6.774 7.158-.798 1.569-1.382 3.252-1.842 4.909-.219.833-.382 1.67-.483 2.492-.126.816-.204 1.62-.207 2.387-.024 1.548.322 2.868.583 3.878.328.992.571 1.791 1.468 2.7 1.72 1.895 6.436 2.6 10.113 1.99a19.6 19.6 0 0 0 2.841-.614 16.31 16.31 0 0 0 2.695-1.118c.865-.451 1.707-.971 2.453-1.606a13.75 13.75 0 0 0 1.073-.996c.328-.334.676-.746.897-1.053a1.062 1.062 0 0 1 1.844 1.028 9.845 9.845 0 0 1-.833 1.634c-.313.498-.65.98-1.015 1.442-.718.938-1.588 1.743-2.502 2.49-.92.741-1.901 1.424-2.945 1.99a22.79 22.79 0 0 1-3.26 1.42 24.51 24.51 0 0 1-6.903 1.271c-.293.013-.574.033-.877.038h-.932c-.63-.023-1.26-.096-1.899-.195-1.274-.21-2.58-.564-3.834-1.168a12.018 12.018 0 0 1-3.406-2.488 12.635 12.635 0 0 1-2.293-3.484 15.035 15.035 0 0 1-1.061-3.792c-.201-1.263-.247-2.51-.198-3.733.105-2.445.601-4.79 1.352-7.025a29.083 29.083 0 0 1 3.05-6.361c1.278-1.992 2.82-3.857 4.708-5.46 1.888-1.58 4.153-2.933 6.777-3.562a13.751 13.751 0 0 1 4.029-.37c1.355.081 2.81.388 4.234 1.127 1.412.725 2.78 2.017 3.477 3.653.723 1.626.768 3.39.443 4.876-.668 3.023-2.512 5.141-4.432 6.734-1.958 1.588-4.125 2.69-6.333 3.472-2.225.744-4.483 1.174-6.724 1.404a36.209 36.209 0 0 1-6.672-.025l-.293-.03a1.647 1.647 0 0 1 .293-3.282M25.767 171.308c-1.922-.183-3.911.122-5.81.866-1.9.734-3.722 1.9-5.231 3.429-3.042 3.015-5.104 7.266-5.183 11.59-.03 1.064.088 2.18.28 3.173.22.996.548 1.984 1.025 2.881.93 1.82 2.357 3.274 4.071 4.062.874.396 1.85.665 2.888.767 1.036.096 2.123.042 3.207-.121a13.85 13.85 0 0 0 1.648-.35c.567-.162 1.146-.271 1.703-.476a31.874 31.874 0 0 0 3.325-1.254c4.384-1.9 8.327-4.877 11.925-8.244 3.596-3.374 6.914-7.2 9.976-11.144 3.03-3.975 5.87-8.082 8.299-12.407 1.225-2.156 2.322-4.374 3.352-6.613a73.454 73.454 0 0 0 1.486-3.38c.25-.588.44-1.076.637-1.644.195-.556.38-1.125.552-1.699.703-2.29 1.294-4.646 1.544-6.917.126-1.13.167-2.242.071-3.23-.085-.99-.35-1.825-.655-2.262-.293-.429-.597-.634-1.37-.732-.362-.04-.86-.03-1.3.027a6.749 6.749 0 0 0-1.356.321 9.466 9.466 0 0 0-2.654 1.463c-.845.66-1.644 1.451-2.391 2.32-1.491 1.747-2.77 3.79-3.88 5.942-1.113 2.156-2.054 4.434-2.873 6.764-1.626 4.668-2.751 9.555-3.418 14.482-.654 4.924-.863 9.927-.35 14.763.263 2.41.717 4.781 1.465 6.964.746 2.17 1.817 4.165 3.241 5.5 1.428 1.336 3.111 1.982 5.178 1.886 2.197-.043 4.308-.623 6.233-1.631 1.924-1.014 3.66-2.47 5.144-4.203a23.683 23.683 0 0 0 2.04-2.776 22.874 22.874 0 0 0 1.252-2.25c.113-.234.25-.536.31-.685l.048-.122a2.84 2.84 0 1 1 5.217 2.246c-.203.438-.357.71-.539 1.046a28.038 28.038 0 0 1-1.723 2.7 34.317 34.317 0 0 1-2.687 3.267 23.667 23.667 0 0 1-6.841 5.1c-2.595 1.262-5.506 1.945-8.361 1.907-1.453.017-3.04-.188-4.487-.747a11.404 11.404 0 0 1-3.867-2.467c-2.186-2.112-3.445-4.744-4.34-7.334-.899-2.606-1.404-5.268-1.705-7.923-.297-2.658-.374-5.313-.311-7.957.05-2.643.216-5.278.524-7.898.6-5.245 1.752-10.41 3.337-15.494.804-2.54 1.748-5.053 2.92-7.508 1.175-2.451 2.557-4.857 4.359-7.1.907-1.119 1.92-2.195 3.102-3.17.593-.483 1.209-.97 1.888-1.399a19.295 19.295 0 0 1 2.17-1.178c.77-.355 1.6-.618 2.46-.837.878-.21 1.713-.35 2.742-.356a8.528 8.528 0 0 1 3.321.58 8.822 8.822 0 0 1 3.146 2.101c.866.898 1.484 1.884 1.95 2.825.46.95.815 1.86 1.082 2.743.535 1.766.813 3.424.978 5.028.337 3.21.242 6.223-.224 9.195-.13.741-.242 1.493-.44 2.246a37.21 37.21 0 0 1-.637 2.257c-.232.674-.446 1.36-.7 2.025-.254.663-.53 1.323-.816 1.972-.558 1.308-1.231 2.556-1.876 3.813l-1.018 1.854-1.088 1.806c-2.947 4.781-6.437 9.142-10.307 13.054-1.898 1.987-3.938 3.83-6.004 5.603a87.612 87.612 0 0 1-6.509 5.103c-4.517 3.226-9.46 6.032-14.78 7.925a47.335 47.335 0 0 1-4.051 1.216c-1.374.334-2.725.615-4.233.794-1.478.167-2.991.19-4.514-.005-1.52-.166-3.062-.544-4.519-1.199-2.957-1.329-5.242-3.736-6.619-6.41-.736-1.324-1.26-2.744-1.619-4.205-.33-1.477-.5-2.901-.507-4.37.01-2.91.488-5.811 1.515-8.52.5-1.36 1.153-2.656 1.878-3.913a24.5 24.5 0 0 1 2.5-3.584c1.902-2.221 4.16-4.24 6.854-5.712 2.663-1.515 5.723-2.51 8.95-2.886a4.381 4.381 0 1 1 .116 8.718l-.116-.012zM106.181 183.386c4.07.322 8.254-.111 11.956-1.661a18.25 18.25 0 0 0 2.634-1.366 12.668 12.668 0 0 0 2.284-1.77 10.874 10.874 0 0 0 1.719-2.15c.46-.757.726-1.587.817-2.34.088-.758-.04-1.434-.313-1.917-.273-.49-.717-.77-1.253-.97-.544-.19-1.232-.267-1.982-.212a7.477 7.477 0 0 0-2.208.551c-2.787 1.157-4.983 3.953-6.455 7.031-.77 1.531-1.296 3.19-1.747 4.798-.21.81-.368 1.623-.465 2.42-.102.794-.208 1.565-.21 2.303-.037 1.479.283 2.749.475 3.656.218.929.232 1.643.912 2.643.676.963 2.127 1.91 3.954 2.267.966.264 1.94.338 2.915.386.971.003 1.939-.056 2.9-.164 1.918-.244 3.788-.803 5.466-1.695.82-.472 1.63-.973 2.298-1.62.34-.313.66-.642.952-.979.146-.17.29-.334.403-.516l.16-.261c.037-.068.115-.202.089-.184a2.147 2.147 0 0 1 3.653 2.254c-.15.254-.213.346-.317.505l-.283.406c-.19.258-.384.509-.585.746-.4.48-.822.926-1.262 1.351-.875.857-1.86 1.569-2.874 2.218-2.032 1.302-4.277 2.194-6.555 2.776-1.14.291-2.29.52-3.444.678-1.155.123-2.311.21-3.458.22-2.382.044-5.068-.27-7.562-1.557-2.505-1.261-4.54-3.637-5.5-6.156-.513-1.258-.802-2.545-.964-3.806a19.783 19.783 0 0 1-.122-3.73c.147-2.44.679-4.775 1.458-7.003a29.127 29.127 0 0 1 3.132-6.334c1.308-1.98 2.878-3.836 4.804-5.416 1.917-1.569 4.249-2.864 6.903-3.44a13.55 13.55 0 0 1 4.071-.26c1.382.14 2.868.5 4.285 1.352 1.411.832 2.682 2.256 3.273 3.91.607 1.652.584 3.367.236 4.83-.717 2.969-2.538 5.085-4.453 6.69-1.952 1.602-4.115 2.726-6.325 3.518-2.227.757-4.49 1.197-6.733 1.432a35.655 35.655 0 0 1-6.679-.028l-.304-.03a1.696 1.696 0 0 1 .304-3.376" fill="#38170f" fill-rule="nonzero"/><path d="M90.53 175.23c-.022.068.015-.034.023-.068l.045-.159c.028-.11.051-.224.067-.333.035-.219.04-.417.028-.563-.038-.317-.06-.312-.111-.383-.056-.076-.37-.253-.875-.336a7.042 7.042 0 0 0-1.731-.063c-2.4.18-4.829 1.61-6.795 3.627-1.971 2.026-3.54 4.59-4.554 7.31-1.003 2.702-1.473 5.683-.898 8.174.288 1.238.855 2.272 1.672 3.025.826.746 1.939 1.227 3.258 1.434 2.77.464 5.689.037 8.463-1.001 2.78-1.035 5.421-2.635 7.864-4.512a43.522 43.522 0 0 0 3.523-3.028c1.111-1.06 2.227-2.226 3.156-3.346l.007-.01a1.827 1.827 0 0 1 2.868 2.26c-1.067 1.425-2.137 2.653-3.304 3.892a47.324 47.324 0 0 1-3.675 3.5c-2.59 2.203-5.469 4.182-8.764 5.602-3.271 1.415-7.065 2.22-10.908 1.764-1.991-.201-4.254-.92-6.1-2.436-1.851-1.509-3.076-3.655-3.662-5.721-.603-2.085-.713-4.135-.587-6.088a24.836 24.836 0 0 1 1.071-5.644c1.129-3.61 2.906-6.99 5.506-9.99 1.31-1.49 2.847-2.88 4.694-4.025 1.838-1.142 4.027-2.027 6.416-2.342 1.216-.15 2.341-.195 3.724-.024.684.087 1.442.249 2.26.553.806.295 1.7.756 2.537 1.456a8.241 8.241 0 0 1 2.07 2.602 8.94 8.94 0 0 1 .871 2.87c.118.9.107 1.719.03 2.478a11.388 11.388 0 0 1-.297 1.68l-.08.298c-.04.129-.047.171-.14.431a4.097 4.097 0 1 1-7.671-2.883M514.007 169.813l-1.246 2.651-1.213 2.723c-.81 1.817-1.507 3.677-2.242 5.514a69.62 69.62 0 0 0-1.884 5.6c-.603 1.864-1.051 3.782-1.458 5.634a24.32 24.32 0 0 0-.408 2.726c-.081.87-.085 1.72.041 2.38.061.33.149.607.252.808.107.203.207.354.378.485.165.135.41.255.735.333.158.043.339.068.526.09.178.02.32.025.501.022.706-.023 1.553-.27 2.365-.635.816-.37 1.623-.848 2.391-1.393a14.456 14.456 0 0 0 2.133-1.86c.647-.679 1.224-1.434 1.574-2.232a.828.828 0 0 1 1.575.469c-.406 2.39-1.767 4.284-3.304 5.932a14.029 14.029 0 0 1-2.665 2.221c-1.002.651-2.134 1.194-3.534 1.47a7.75 7.75 0 0 1-2.149.082 6.26 6.26 0 0 1-2.306-.666c-.779-.392-1.478-1.016-1.984-1.694a6.843 6.843 0 0 1-1.058-2.085c-.81-2.74-.568-5.021-.292-7.23.153-1.098.343-2.172.577-3.222l.35-1.579.403-1.557a74.071 74.071 0 0 1 2.01-6.074c.741-1.99 1.621-3.92 2.536-5.826a47.64 47.64 0 0 1 1.46-2.819 68.738 68.738 0 0 1 1.626-2.792 2.495 2.495 0 0 1 4.38 2.372l-.07.152z" fill="#38170f" fill-rule="nonzero"/><path d="M505.464 178.886c.335-1.322.551-2.818.465-4.181a8.476 8.476 0 0 0-.324-1.954 4.247 4.247 0 0 0-.823-1.527c-.347-.41-.78-.687-1.277-.884-.486-.181-1.103-.332-1.634-.265-1.072.099-2.09.59-3.004 1.405-.911.81-1.714 1.853-2.45 2.966-.718 1.135-1.37 2.342-1.999 3.575-.613 1.241-1.227 2.498-1.772 3.792-.265.65-.581 1.279-.847 1.932-.257.654-.55 1.298-.82 1.951-1.071 2.607-1.847 5.366-2.231 7.967-.198 1.276-.22 2.579.018 3.366.13.383.187.58.405.821l.1.092.218.1c.146.073.294.122.445.187.302.11.614.209.934.263 1.294.316 2.682-.058 3.898-.723 1.24-.648 2.35-1.601 3.335-2.675.975-1.087 1.803-2.319 2.553-3.592.384-.633.69-1.312.995-1.984.299-.667.588-1.38.774-2.037a.902.902 0 0 1 1.746.458l-.05.205a30.64 30.64 0 0 1-1.513 4.552c-.628 1.488-1.376 2.957-2.33 4.372-.957 1.409-2.12 2.783-3.663 3.946-1.528 1.151-3.51 2.09-5.708 2.357-.547.077-1.097.093-1.647.082-.272-.015-.55-.02-.818-.051l-.407-.043a5.843 5.843 0 0 1-.635-.14 6.749 6.749 0 0 1-2.416-1.259 7.108 7.108 0 0 1-1.6-1.867c-.753-1.281-1.091-2.444-1.29-3.52a16.137 16.137 0 0 1-.224-3.01c.131-3.757.978-7.012 2.065-10.192 1.11-3.163 2.621-6.139 4.446-8.999a33.436 33.436 0 0 1 3.142-4.138c1.19-1.33 2.6-2.563 4.354-3.562a10.56 10.56 0 0 1 2.947-1.153 8.937 8.937 0 0 1 3.397-.128 9.334 9.334 0 0 1 3.163 1.105c1 .57 1.936 1.415 2.51 2.416.586.989.921 2.023 1.022 3.004.095.978.07 1.896-.094 2.766a12.36 12.36 0 0 1-1.846 4.685l-.09.14a.786.786 0 0 1-1.42-.62M437.459 183.303c1.024.082 2.05.098 3.073.061 1.02-.04 2.044-.09 3.052-.24 2.013-.306 3.991-.79 5.856-1.515 1.84-.77 3.586-1.764 4.96-3.081.683-.654 1.282-1.37 1.74-2.128a5.736 5.736 0 0 0 .818-2.319c.084-.75-.055-1.408-.35-1.876-.294-.475-.762-.768-1.353-.975a5.375 5.375 0 0 0-2.125-.21 7.96 7.96 0 0 0-2.283.553c-2.903 1.18-5.215 4.025-6.774 7.158-.798 1.569-1.382 3.251-1.842 4.908-.219.834-.382 1.671-.483 2.493-.126.816-.204 1.62-.207 2.386-.024 1.55.322 2.869.583 3.878.328.992.572 1.792 1.468 2.7 1.722 1.896 6.436 2.6 10.113 1.99a19.6 19.6 0 0 0 2.841-.613 16.31 16.31 0 0 0 2.695-1.118c.865-.452 1.707-.971 2.453-1.607.377-.313.735-.646 1.073-.995.33-.335.676-.746.897-1.053a1.062 1.062 0 0 1 1.844 1.028 9.895 9.895 0 0 1-.832 1.634c-.313.498-.652.98-1.016 1.442-.718.937-1.588 1.742-2.502 2.49-.92.74-1.901 1.424-2.945 1.99a22.831 22.831 0 0 1-3.26 1.42 24.506 24.506 0 0 1-6.903 1.27c-.293.013-.574.034-.877.039h-.932a16.393 16.393 0 0 1-1.898-.195c-1.275-.211-2.58-.564-3.835-1.168a12.027 12.027 0 0 1-3.406-2.488 12.65 12.65 0 0 1-2.293-3.484 15.035 15.035 0 0 1-1.061-3.793c-.201-1.262-.247-2.51-.198-3.732.105-2.445.601-4.79 1.352-7.025a29.05 29.05 0 0 1 3.05-6.362c1.278-1.991 2.82-3.857 4.709-5.459 1.887-1.58 4.152-2.933 6.776-3.563a13.774 13.774 0 0 1 4.029-.368c1.355.08 2.81.387 4.234 1.125 1.412.726 2.78 2.017 3.477 3.654.724 1.626.768 3.389.443 4.875-.668 3.024-2.512 5.142-4.432 6.735-1.958 1.588-4.125 2.69-6.332 3.472-2.226.744-4.484 1.173-6.725 1.403a36.209 36.209 0 0 1-6.672-.025l-.292-.029a1.647 1.647 0 0 1 .292-3.283M549.035 138.37a682.567 682.567 0 0 0-5.842 9.645c-1.916 3.248-3.789 6.52-5.66 9.788a287.337 287.337 0 0 0-5.375 9.911 202.133 202.133 0 0 0-2.503 5.02 160.505 160.505 0 0 0-2.383 5.046c-1.51 3.375-2.899 6.806-3.85 10.208-.468 1.69-.82 3.395-.892 4.912-.04.754.013 1.45.137 1.955.132.517.274.752.43.9.157.17.517.307 1.143.417.58.082 1.222.116 1.945.035 1.445-.137 3.19-.703 4.694-1.7 1.527-.983 2.802-2.367 3.851-3.887.263-.381.521-.766.74-1.179.225-.406.451-.812.632-1.244.198-.422.365-.86.512-1.306.143-.436.273-.922.316-1.343a2.167 2.167 0 1 1 4.086 1.208l-.401.778a39.33 39.33 0 0 1-1.508 2.653 43.33 43.33 0 0 1-1.668 2.51c-1.177 1.64-2.481 3.222-4.03 4.672-1.551 1.434-3.345 2.797-5.655 3.63-1.15.41-2.437.659-3.763.626-1.265-.021-2.838-.326-4.219-1.306a6.646 6.646 0 0 1-1.705-1.762 8.136 8.136 0 0 1-.95-1.997c-.42-1.317-.532-2.537-.552-3.68-.02-2.286.321-4.35.747-6.352.88-3.988 2.167-7.711 3.558-11.368 2.819-7.294 6.143-14.27 9.635-21.142a395.4 395.4 0 0 1 11.12-20.29 4.373 4.373 0 0 1 7.54 4.429l-.035.06-.095.154z" fill="#38170f" fill-rule="nonzero"/><path d="M464.762 191.608a211.79 211.79 0 0 0 11.761-15.32 213.774 213.774 0 0 0 10.418-16.257 128.37 128.37 0 0 0 4.408-8.554 65.3 65.3 0 0 0 1.759-4.434c.507-1.488.998-2.986 1.21-4.46a9.254 9.254 0 0 0 .12-2.077c-.033-.625-.248-1.112-.388-1.18-.081-.028-.092-.027-.205-.029a.216.216 0 0 1-.073-.012l-.127.007a1.377 1.377 0 0 0-.3.019 4.727 4.727 0 0 0-1.542.448c-1.057.506-2.11 1.35-3.079 2.359-.972 1.01-1.873 2.166-2.71 3.39-1.67 2.457-3.175 5.12-4.497 7.895a88.424 88.424 0 0 0-1.979 4.175c-.625 1.413-1.197 2.854-1.803 4.278-2.34 5.732-4.427 11.61-6.017 17.537a74.754 74.754 0 0 0-1.081 4.438 52.52 52.52 0 0 0-.797 4.404c-.211 1.449-.358 2.883-.357 4.227-.012.68.042 1.31.107 1.909.077.586.217 1.094.331 1.507.126.418.258.657.358.812.102.153.246.297.62.385.063.036.227.039.379.045l.455.027c.307.037.61-.002.923-.002.315.01.625-.051.942-.095.32-.029.634-.117.954-.2.324-.066.638-.186.957-.302.325-.101.633-.258.952-.4.646-.273 1.272-.63 1.896-1.018a21.586 21.586 0 0 0 3.473-2.837l.1-.1a1 1 0 0 1 1.614 1.137 18.489 18.489 0 0 1-1.312 2.28c-.473.731-1.034 1.402-1.623 2.063-1.192 1.307-2.617 2.484-4.3 3.355-.42.22-.844.439-1.3.6-.449.174-.899.36-1.377.47-.474.116-.946.28-1.438.319l-.737.093c-.245.03-.479.067-.806.056-1.187.03-2.587-.282-3.752-1.029-1.174-.733-2.024-1.769-2.595-2.758-1.145-2.015-1.514-3.96-1.772-5.797-.237-1.847-.29-3.63-.24-5.38.149-3.495.643-6.86 1.282-10.179a101.969 101.969 0 0 1 6.111-19.144c2.703-6.154 5.858-12.146 10.49-17.635 1.18-1.363 2.468-2.692 3.983-3.936.376-.312.787-.613 1.192-.907.442-.284.841-.58 1.325-.841a14.565 14.565 0 0 1 3.119-1.384l.899-.24c.314-.063.64-.112.96-.16.313-.058.663-.063.998-.08l.506-.015c.181.005.378.02.566.035l.568.053c.194.024.431.08.643.127.218.051.432.104.648.168.242.088.483.185.719.29.459.183.96.524 1.406.867.433.358.852.812 1.164 1.258.294.45.583.95.725 1.377.084.223.162.45.232.675l.129.602c.09.423.113.77.133 1.122.03.371.014.676 0 .989a14.845 14.845 0 0 1-.54 3.21c-.519 1.89-1.21 3.51-1.93 5.094a71.115 71.115 0 0 1-2.316 4.54c-1.622 2.927-3.345 5.733-5.136 8.48-1.8 2.74-3.658 5.42-5.547 8.071-1.9 2.643-3.79 5.282-5.811 7.826-2 2.557-4.017 5.095-6.074 7.6-2.104 2.473-4.172 4.96-6.38 7.356l-.098.106a.997.997 0 0 1-1.496-1.32M514.526 152.666c.97-.267 1.815-.473 2.709-.678.883-.211 1.761-.39 2.641-.58a142.04 142.04 0 0 1 5.279-.978 146.665 146.665 0 0 1 10.59-1.375c3.539-.328 7.08-.561 10.624-.625 3.54-.11 7.084-.01 10.61.14a1.504 1.504 0 0 1 .044 3.003l-.044.002c-3.447.231-6.88.508-10.29.989-3.414.435-6.802 1.034-10.163 1.72a140.97 140.97 0 0 0-9.98 2.423 135.17 135.17 0 0 0-4.891 1.47c-.803.268-1.612.527-2.401.81-.784.27-1.608.573-2.295.847l-.025.01a3.792 3.792 0 1 1-2.408-7.178M416.295 177.768c-.038-.021.02.004.047.014l.117.044c.08.031.172.061.266.092.18.064.386.117.582.172.406.1.82.193 1.248.249.85.122 1.72.168 2.59.125.869-.064 1.74-.15 2.595-.372.432-.077.852-.235 1.278-.35.422-.133.836-.307 1.254-.453h.001a2.976 2.976 0 0 1 3.888 3.873l-.133.326a83.841 83.841 0 0 0-1.81 4.887 91.158 91.158 0 0 0-1.53 5.027c-.908 3.365-1.63 6.758-1.98 10.081-.187 1.66-.274 3.3-.232 4.879.043 1.573.172 3.11.5 4.476.32 1.37.79 2.581 1.386 3.536.597.96 1.295 1.656 2.108 2.195a5.231 5.231 0 1 1-6.316 8.316l-.283-.25a17.314 17.314 0 0 1-4.349-5.92c-.979-2.18-1.484-4.41-1.724-6.554-.247-2.152-.179-4.22-.012-6.234.173-2.013.498-3.963.92-5.861.828-3.805 2.022-7.42 3.384-10.935a98.215 98.215 0 0 1 2.205-5.187 87.32 87.32 0 0 1 2.53-5.086l3.481 3.894h-.002c-.57.18-1.132.38-1.71.537-.586.137-1.16.31-1.76.399-1.18.242-2.4.324-3.614.35-1.22.005-2.443-.111-3.654-.343-.607-.11-1.209-.269-1.811-.45-.303-.1-.601-.194-.91-.317a8.978 8.978 0 0 1-.466-.19l-.246-.108-.31-.152a2.66 2.66 0 0 1 2.472-4.71M566.302 190.112c-1.8 3.988-4.8 7.485-8.652 9.728-1.92 1.116-4.043 1.945-6.29 2.272-.566.068-1.119.157-1.698.133l-.852-.003c-.287-.022-.572-.058-.857-.075-.57-.01-1.14-.114-1.714-.203-.573-.09-1.126-.293-1.698-.437-2.242-.78-4.143-2.449-5.43-4.372-1.32-1.928-2.098-4.115-2.462-6.304-.766-4.411.183-8.809 1.88-12.71a25.67 25.67 0 0 1 3.366-5.463c1.345-1.678 2.9-3.21 4.696-4.484a17.369 17.369 0 0 1 6.134-2.795c2.269-.507 4.853-.451 7.161.527 2.309.975 4.178 2.768 5.463 4.75 1.29 2 2.109 4.196 2.518 6.42.872 4.45.193 9.011-1.565 13.016m-4.966-2.14a28.39 28.39 0 0 0 1.647-5.096c.39-1.742.587-3.536.482-5.312-.105-1.768-.523-3.532-1.382-5.023-.839-1.496-2.134-2.675-3.65-3.243-.781-.222-1.564-.397-2.37-.356l-.599.019-.596.124c-.396.055-.783.213-1.166.337-.385.107-.751.335-1.122.488-.363.191-.705.443-1.053.653-.337.244-.66.514-.987.76-.312.281-.61.578-.91.861-1.16 1.212-2.132 2.603-2.92 4.074-.22.35-.4.73-.583 1.105-.187.37-.37.742-.516 1.134-.14.394-.347.748-.48 1.144l-.433 1.159c-1.033 3.143-1.524 6.29-1.734 9.378-.08 1.543-.04 3.108.393 4.552.117.352.22.732.4 1.047l.244.512.31.458c.196.33.472.564.727.85.261.276.584.466.88.733l.508.285c.174.091.342.216.535.26.378.113.755.296 1.167.31.203.024.408.03.612.049l.619-.068c.412-.018.82-.142 1.23-.232 1.634-.419 3.189-1.284 4.546-2.397 1.362-1.112 2.562-2.446 3.582-3.905a25.115 25.115 0 0 0 2.62-4.66" fill="#38170f" fill-rule="nonzero"/><path d="M556.593 168.65c-1.897.096-3.691.896-4.856 2.21-.572.655-.986 1.424-1.126 2.166-.149.75.015 1.378.357 1.775.169.207.4.38.704.516.292.142.648.246 1.042.303.787.12 1.713.093 2.535-.07 1.69-.328 3.368-1.234 5.03-2.334 3.324-2.24 6.636-5.137 10.62-7.409a31.978 31.978 0 0 1 6.417-2.841 28.716 28.716 0 0 1 7.099-1.218h.018a3.38 3.38 0 1 1-.018 6.751 22.245 22.245 0 0 0-5.525.42 26.07 26.07 0 0 0-5.432 1.83c-1.794.809-3.556 1.817-5.347 2.9-1.791 1.08-3.608 2.253-5.593 3.329-1.984 1.053-4.212 2.066-6.76 2.32-1.283.116-2.515.05-3.808-.276a6.86 6.86 0 0 1-1.933-.806 5.069 5.069 0 0 1-1.66-1.583 4.867 4.867 0 0 1-.768-2.193 5.494 5.494 0 0 1 .221-2.141c.401-1.323 1.17-2.403 2.083-3.266 1.85-1.722 4.351-2.49 6.7-2.385a1.002 1.002 0 0 1 .01 2.003h-.01zM371.624 161.757a65.5 65.5 0 0 0-1.328 2.335c-.443.809-.87 1.63-1.294 2.455a115.303 115.303 0 0 0-2.409 5.026 103.674 103.674 0 0 0-4.027 10.372 91.034 91.034 0 0 0-1.53 5.314 74.176 74.176 0 0 0-1.12 5.375 58.82 58.82 0 0 0-.608 5.402 45.168 45.168 0 0 0 .035 5.361l.013.19a2.866 2.866 0 0 1-5.674.736 43.109 43.109 0 0 0-.592-1.987 64.01 64.01 0 0 0-.697-2.035 62.848 62.848 0 0 0-1.612-3.996 53.445 53.445 0 0 0-4.04-7.495 43.352 43.352 0 0 0-2.453-3.368 35.547 35.547 0 0 0-2.763-2.988 28.038 28.038 0 0 0-3.068-2.482 22.964 22.964 0 0 0-3.34-1.849 3.743 3.743 0 0 1 2.542-7.02l.45.126c.705.323 1.589.68 2.407 1.001a85.349 85.349 0 0 0 7.723 2.573c3.493.977 7.049 1.738 10.63 2.187 3.579.447 7.19.588 10.74.244 3.544-.344 7.035-1.185 10.214-2.732l.008-.004a1.649 1.649 0 0 1 2.204.76c.375.77.09 1.692-.624 2.13-3.428 2.087-7.275 3.4-11.167 4.15-3.901.75-7.864.963-11.786.843-3.925-.123-7.817-.582-11.66-1.278a92.447 92.447 0 0 1-8.58-1.992 56.13 56.13 0 0 1-2.908-.903v-.002l2.99-6.894a30.088 30.088 0 0 1 4.347 2.863 34.582 34.582 0 0 1 3.673 3.476 41.665 41.665 0 0 1 3.052 3.865 49.686 49.686 0 0 1 2.523 4.111 58.979 58.979 0 0 1 3.81 8.642c1.03 2.966 1.866 5.9 2.463 9.045l-3.398.557a49.75 49.75 0 0 1-.484-5.993c-.02-2 .063-3.996.23-5.984.186-1.983.449-3.957.783-5.916a96.86 96.86 0 0 1 1.221-5.824 110.133 110.133 0 0 1 3.471-11.35c.677-1.86 1.399-3.703 2.168-5.532.388-.915.78-1.827 1.195-2.736.423-.924.82-1.786 1.324-2.775a4.011 4.011 0 1 1 7.01 3.89l-.064.106zM422.325 150.726c1.51-.136 3.126-1.406 4.324-2.993 1.23-1.583 2.096-3.542 2.502-5.427.185-.942.273-1.877.094-2.66-.19-.77-.546-1.368-1.216-1.717-.659-.36-1.587-.463-2.556-.38-.972.075-1.941.296-2.883.66-1.89.713-3.63 1.963-5.22 3.394-1.578 1.457-2.992 3.14-4.288 4.92-2.573 3.58-4.724 7.521-6.492 11.617-.89 2.045-1.75 4.103-2.484 6.206a79.61 79.61 0 0 0-2.056 6.328c-1.272 4.234-2.087 8.57-2.526 12.797a36.098 36.098 0 0 0-.149 3.148 27.84 27.84 0 0 0 .077 3.061c.162 1.998.59 3.891 1.312 5.488.73 1.6 1.771 2.862 3.213 3.724 1.426.892 3.291 1.33 5.316 1.472l.346.014c0 .012.19.036.302.05a9.679 9.679 0 0 0 1.268.05 14.728 14.728 0 0 0 1.73-.155 9.172 9.172 0 0 0 3.233-1.142c.5-.287.958-.646 1.394-1.041a9.263 9.263 0 0 0 1.239-1.321c.752-.985 1.35-2.15 1.844-3.406l.011-.028a1.078 1.078 0 0 1 2.076.49 14.386 14.386 0 0 1-1.16 4.544c-.648 1.49-1.65 2.9-2.931 4.038-1.276 1.144-2.795 2.026-4.397 2.614-.801.301-1.626.521-2.468.67a15.142 15.142 0 0 1-1.94.226l-.347.012c-.133 0-.216.005-.43-.007l.366.014c-2.65.272-5.603.114-8.471-1.088a14.561 14.561 0 0 1-3.963-2.489 16.565 16.565 0 0 1-3-3.533c-1.633-2.568-2.547-5.329-3.123-8.017a36.355 36.355 0 0 1-.614-4.024 45.546 45.546 0 0 1-.135-3.964c.008-5.242.924-10.282 2.312-15.125a82.069 82.069 0 0 1 2.477-7.121c.974-2.314 2.013-4.602 3.22-6.813 2.44-4.402 5.218-8.668 8.75-12.521 1.76-1.93 3.691-3.768 5.91-5.422 2.205-1.656 4.723-3.166 7.743-4.067a16.834 16.834 0 0 1 4.818-.712c.837.002 1.736.075 2.69.273.95.196 1.978.536 2.985 1.112a8.74 8.74 0 0 1 2.69 2.36c.736.969 1.202 2.042 1.489 3.058.274 1.016.403 1.981.42 2.89.017.907-.071 1.755-.169 2.572-.496 3.244-1.628 5.997-3.366 8.684-.889 1.333-1.934 2.67-3.442 3.863-.76.582-1.604 1.184-2.623 1.664-1.022.476-2.21.849-3.512 1.028a3.929 3.929 0 1 1-.901-7.804l.711-.064zM170.051 27.604l-1.636-.213a.498.498 0 0 0-.532.315c-.501 1.288-1.498 2.212-3.046 2.822-1.267.498-2.397.598-3.349.3-.927-.29-1.558-.883-1.925-1.815-.352-.894-.288-1.75.197-2.613.497-.886 1.352-1.573 2.54-2.041 1.604-.632 2.986-.655 4.223-.07.18.083.392.055.544-.078l1.22-1.069a.5.5 0 0 0-.072-.806c-2.039-1.217-4.341-1.332-6.847-.344-1.74.685-3.046 1.729-3.881 3.1-.98 1.603-1.143 3.263-.486 4.932.669 1.694 1.914 2.808 3.704 3.31a6.698 6.698 0 0 0 1.806.244c1.012 0 2.072-.216 3.168-.649 1.249-.491 2.267-1.112 3.028-1.844.772-.741 1.361-1.69 1.753-2.82a.502.502 0 0 0-.409-.66M185.239 16.889c.509 0 .99.081 1.44.244 1.028.37 1.668 1.03 1.957 2.015.279.952.149 1.805-.397 2.607-.56.823-1.484 1.427-2.745 1.797-1.271.372-2.382.366-3.3-.019-.894-.374-1.466-1.022-1.748-1.983-.271-.924-.128-1.773.435-2.594.58-.845 1.499-1.456 2.733-1.818a5.781 5.781 0 0 1 1.625-.25m2.632-2.11c-1.503-.58-3.176-.607-4.973-.08-1.787.524-3.184 1.45-4.154 2.755-1.127 1.522-1.444 3.16-.941 4.871.51 1.741 1.653 2.957 3.4 3.615.776.295 1.6.442 2.467.442.81 0 1.66-.129 2.54-.388 1.803-.528 3.203-1.446 4.162-2.727 1.115-1.5 1.42-3.144.906-4.893-.501-1.711-1.648-2.921-3.407-3.595M211.187 17a.528.528 0 0 0-.377-.066l-7.161 1.607-1.781-7.94a.505.505 0 0 0-.222-.315.523.523 0 0 0-.377-.065l-1.642.37a.501.501 0 0 0-.38.598l2.224 9.906a.502.502 0 0 0 .598.38l9.291-2.085a.502.502 0 0 0 .38-.599l-.332-1.478a.5.5 0 0 0-.221-.314M228.76 13c-.656.747-1.645 1.237-2.941 1.45-1.31.216-2.409.075-3.275-.417-.843-.48-1.332-1.193-1.495-2.18-.157-.95.088-1.776.746-2.523.677-.768 1.664-1.262 2.933-1.472a6.228 6.228 0 0 1 1.024-.088c.746 0 1.421.151 2.02.453.974.492 1.53 1.224 1.697 2.237.162.979-.07 1.81-.709 2.54m.48-6.97c-1.424-.758-3.081-.985-4.928-.682-1.836.303-3.334 1.054-4.457 2.233-1.301 1.373-1.815 2.961-1.524 4.723.296 1.788 1.285 3.133 2.938 3.997 1.008.53 2.138.796 3.377.796a9.66 9.66 0 0 0 1.587-.136c1.854-.306 3.354-1.047 4.462-2.205 1.287-1.351 1.79-2.948 1.492-4.746-.291-1.759-1.284-3.1-2.948-3.98M250.873 5.876c.06.552-.059 1.083-1.325 1.22l-5.538.606-.244-2.24 5.385-.586c1.405-.158 1.658.42 1.722 1m.768 3.25a3.43 3.43 0 0 0 1.33-1.044c.513-.677.72-1.518.613-2.502-.122-1.113-.579-1.976-1.356-2.566-.77-.583-1.764-.818-2.946-.685l-7.96.868a.5.5 0 0 0-.443.552l1.1 10.094a.503.503 0 0 0 .553.444l1.673-.183a.5.5 0 0 0 .443-.553l-.365-3.35 4.34-.472 2.98 3.357a.49.49 0 0 0 .429.165l1.946-.213a.5.5 0 0 0 .324-.824l-2.66-3.088zM270.107 7.077l-3.534.21 1.579-3.447 1.955 3.237zm-.632-6.073c-.098-.158-.274-.265-.458-.24l-2.115.126a.501.501 0 0 0-.425.293l-4.758 10.453a.503.503 0 0 0 .456.709l.029-.001 1.837-.11a.5.5 0 0 0 .429-.297l.91-2.057 6.216-.371 1.147 1.936c.094.16.266.249.46.245l1.838-.11a.502.502 0 0 0 .4-.76l-5.966-9.816zM292.985 3.39c.607.567.907 1.307.918 2.261.01.893-.252 1.604-.803 2.17-.551.565-1.246.846-2.124.856l-4.702.056-.073-6.121 4.38-.053c.995.02 1.793.26 2.404.831M290.534.044l-.124.001-6.423.077a.5.5 0 0 0-.494.507l.122 10.152a.5.5 0 0 0 .501.495h.005l6.746-.082c1.62-.018 3-.53 4.1-1.52 1.187-1.072 1.78-2.423 1.761-4.015-.02-1.72-.613-3.109-1.763-4.13-1.111-.985-2.601-1.485-4.431-1.485M312.302 9.227c-1.325-.047-2.376-.405-3.125-1.062-.73-.638-1.068-1.434-1.032-2.433.036-.962.44-1.724 1.234-2.325.758-.574 1.733-.863 2.898-.863.09 0 .179.001.269.005 1.176.042 2.155.367 2.91.963.857.677 1.256 1.505 1.218 2.531v.001c-.036.991-.429 1.758-1.2 2.347-.791.604-1.847.893-3.172.836m.337-9.221c-1.867-.06-3.478.37-4.813 1.3-1.549 1.087-2.369 2.541-2.434 4.326-.065 1.812.636 3.327 2.084 4.501 1.242 1.017 2.835 1.568 4.732 1.638.13.004.258.006.384.006 1.715 0 3.204-.43 4.427-1.279 1.53-1.066 2.341-2.532 2.41-4.353.063-1.783-.642-3.294-2.097-4.49-1.245-1.025-2.823-1.581-4.693-1.65M349.805 11.923l-7.292-.814.9-8.087a.5.5 0 0 0-.442-.553l-1.67-.187a.499.499 0 0 0-.552.442l-1.127 10.09a.502.502 0 0 0 .442.554l9.463 1.056a.499.499 0 0 0 .552-.442l.168-1.505a.502.502 0 0 0-.442-.554M369.601 11.801c-.158.98-.646 1.691-1.485 2.177-.863.498-1.962.642-3.252.43-1.309-.216-2.307-.703-2.968-1.449-.643-.726-.878-1.558-.714-2.544.155-.95.652-1.652 1.519-2.15.627-.36 1.36-.542 2.189-.542.338 0 .69.03 1.058.09 1.16.191 2.092.638 2.766 1.324.766.78 1.055 1.651.887 2.664m-3.238-6.498c-1.835-.302-3.496-.073-4.938.682-1.674.882-2.67 2.222-2.962 3.982-.296 1.788.21 3.38 1.497 4.73 1.105 1.165 2.615 1.913 4.488 2.221.54.09 1.064.133 1.57.133 1.231 0 2.358-.263 3.364-.786 1.653-.866 2.641-2.216 2.94-4.015.29-1.76-.22-3.347-1.512-4.718-1.106-1.175-2.602-1.925-4.447-2.229M389.122 9.771c-1.823-.418-3.49-.292-4.954.367-1.716.771-2.787 2.049-3.186 3.797-.405 1.777-.004 3.4 1.19 4.823 1.022 1.22 2.48 2.053 4.33 2.475a10.53 10.53 0 0 0 2.334.284c.421 0 .824-.032 1.208-.096 1.058-.177 2.079-.627 3.038-1.339a.503.503 0 0 0 .203-.378.504.504 0 0 0-.166-.396l-1.23-1.103a.507.507 0 0 0-.619-.039c-1.136.78-2.48.98-4.104.609-1.329-.303-2.317-.856-2.935-1.642-.6-.765-.785-1.61-.561-2.585.213-.938.747-1.607 1.637-2.046.908-.452 2-.537 3.248-.25 1.68.384 2.833 1.144 3.525 2.326.1.172.304.28.491.244l1.612-.193a.493.493 0 0 0 .378-.252.497.497 0 0 0 .017-.455c-.994-2.154-2.83-3.551-5.456-4.15M409.658 22.16l-3.392-1.018 2.668-2.694.724 3.712zm1.146-6.304l-2.029-.608a.484.484 0 0 0-.5.128l-8.063 8.181a.502.502 0 0 0 .212.83l1.763.53c.181.05.373.005.504-.132l1.564-1.62 5.963 1.791.413 2.212c.035.184.17.333.348.387l1.762.53a.5.5 0 0 0 .636-.577l-2.226-11.269a.5.5 0 0 0-.347-.383M430.983 32.156l-6.838-2.663 2.954-7.583a.501.501 0 0 0-.285-.648l-1.567-.611a.503.503 0 0 0-.65.285l-3.686 9.461a.499.499 0 0 0 .01.383.499.499 0 0 0 .276.266l8.872 3.455a.503.503 0 0 0 .65-.285l.55-1.411a.502.502 0 0 0-.286-.65" fill="#38170f" fill-rule="nonzero"/><path d="M187.134 37.897c-9.453.594-16.58 8.913-16.58 18.385v51.803c0 9.472 7.127 17.79 16.58 18.385 10.283.646 18.857-7.536 18.857-17.682V93.065a1.915 1.915 0 0 0-1.915-1.915h-11.718a1.915 1.915 0 0 0-1.915 1.915v7.234c0 1.058.857 1.914 1.915 1.914h2.485c.047 0 .085.039.085.085v6.231c0 3.215-2.167 6.166-5.321 6.782a6.666 6.666 0 0 1-7.99-6.523V55.835c0-3.214 2.168-6.165 5.323-6.78a6.666 6.666 0 0 1 7.988 6.524v8.537c0 1.057.857 1.914 1.914 1.914h7.225a1.924 1.924 0 0 0 1.924-1.924V55.58c0-10.146-8.574-18.328-18.857-17.682M302.062 37.897c-9.453.594-16.58 8.913-16.58 18.385v51.803c0 9.472 7.127 17.79 16.58 18.385 10.283.646 18.857-7.536 18.857-17.682v-10.09a2.016 2.016 0 0 0-2.016-2.016h-7.031a2.016 2.016 0 0 0-2.016 2.016v9.831c0 3.215-2.167 6.166-5.321 6.782a6.666 6.666 0 0 1-7.99-6.523V55.835c0-3.214 2.168-6.165 5.323-6.78a6.666 6.666 0 0 1 7.988 6.524v8.436c0 1.113.903 2.015 2.016 2.015h7.031a2.016 2.016 0 0 0 2.016-2.015v-8.436c0-10.146-8.574-18.328-18.857-17.682M348.003 124.703h26.601c.913 0 1.652-.74 1.652-1.652v-7.759c0-.912-.739-1.652-1.652-1.652h-17.107a.084.084 0 0 1-.085-.085V86.573c0-.047.038-.084.085-.084h8.593c.912 0 1.652-.74 1.652-1.652v-7.76c0-.913-.74-1.652-1.652-1.652h-8.593a.084.084 0 0 1-.085-.084V50.812c0-.046.038-.084.085-.084h17.107c.913 0 1.652-.74 1.652-1.652v-7.76c0-.912-.739-1.651-1.652-1.651h-26.601c-.912 0-1.652.74-1.652 1.652v81.734c0 .912.74 1.652 1.652 1.652M393.168 75.34V50.813c0-.046.038-.084.084-.084h9.225a6.848 6.848 0 0 1 6.847 6.848v11.001a6.848 6.848 0 0 1-6.847 6.848h-9.225a.084.084 0 0 1-.084-.084m27.218-6.68V57.577c0-9.892-8.02-17.912-17.911-17.912h-18.47c-1.049 0-1.899.85-1.899 1.899v81.069c0 1.048.85 1.898 1.899 1.898h7.265c1.048 0 1.898-.85 1.898-1.898v-36.06c0-.046.038-.083.084-.083h9.309c.829 0 1.638-.077 2.437-.187 2.357 2.576 3.725 5.96 3.725 9.505v26.825c0 1.048.85 1.898 1.899 1.898h7.265c1.048 0 1.898-.85 1.898-1.898V95.807c0-5.235-1.672-10.27-4.621-14.461a.079.079 0 0 1 .009-.102 17.768 17.768 0 0 0 5.213-12.582M220.943 39.386h-6.909c-1.147 0-2.077.93-2.077 2.078v81.162c0 1.147.93 2.077 2.077 2.077h23.08c1.148 0 2.078-.93 2.078-2.077v-6.91c0-1.146-.93-2.077-2.077-2.077h-14.01a.084.084 0 0 1-.085-.084V41.464c0-1.148-.93-2.078-2.077-2.078M330.004 124.53h7.26a1.9 1.9 0 0 0 1.9-1.9V41.287c0-1.05-.85-1.902-1.9-1.902h-7.26c-1.05 0-1.901.852-1.901 1.902v81.341c0 1.05.851 1.901 1.901 1.901M260.487 89.322l2.371-12.5c.018-.093.15-.091.167.002l2.131 12.5a.085.085 0 0 1-.083.098h-4.503a.084.084 0 0 1-.083-.1m-2.081-48.402l-15.448 81.355a1.894 1.894 0 0 0 1.861 2.248h7.422c.91 0 1.692-.647 1.861-1.54l4.268-22.498h8.69l3.83 22.462c.156.91.945 1.576 1.868 1.576h7.375a1.894 1.894 0 0 0 1.868-2.213l-13.878-81.355a1.895 1.895 0 0 0-1.867-1.576h-5.99c-.91 0-1.69.648-1.86 1.541" fill="#92278f" fill-rule="nonzero"/><path d="M4.363 211.282c1.331.607 2.567 1.339 3.767 2.117 1.206.77 2.359 1.61 3.493 2.474 1.122.88 2.23 1.777 3.286 2.744 1.06.96 2.09 1.96 3.027 3.08a3.08 3.08 0 0 1-3.658 4.768c-1.325-.615-2.558-1.35-3.76-2.127-1.207-.769-2.36-1.608-3.5-2.463-1.129-.872-2.237-1.768-3.294-2.733-1.062-.958-2.09-1.962-3.02-3.092a3.083 3.083 0 0 1 3.659-4.768" fill="#27aae1" fill-rule="nonzero"/><path d="M41.593 216.05c-.931 1.13-1.958 2.135-3.02 3.092a51.918 51.918 0 0 1-3.294 2.733c-1.14.856-2.294 1.695-3.5 2.464-1.202.776-2.435 1.512-3.76 2.127a3.08 3.08 0 0 1-4.09-1.495 3.086 3.086 0 0 1 .431-3.273c.938-1.12 1.967-2.121 3.028-3.08 1.055-.967 2.164-1.864 3.286-2.745a52.579 52.579 0 0 1 3.493-2.474c1.2-.778 2.436-1.51 3.767-2.116a3.084 3.084 0 0 1 3.659 4.768" fill="#2bb673" fill-rule="nonzero"/><path d="M54.24 211.282c1.331.607 2.567 1.339 3.767 2.117 1.205.77 2.358 1.61 3.493 2.474 1.121.88 2.23 1.777 3.286 2.744 1.06.96 2.09 1.96 3.027 3.08a3.08 3.08 0 0 1-.385 4.338 3.083 3.083 0 0 1-3.273.43c-1.325-.615-2.558-1.35-3.76-2.127-1.207-.769-2.36-1.608-3.5-2.463-1.13-.872-2.238-1.768-3.295-2.733-1.062-.958-2.088-1.962-3.02-3.092a3.084 3.084 0 0 1 3.66-4.768" fill="#ffde17" fill-rule="nonzero"/><path d="M91.47 216.05c-.931 1.13-1.958 2.135-3.02 3.092a51.732 51.732 0 0 1-3.294 2.733c-1.14.856-2.294 1.695-3.501 2.464-1.202.776-2.434 1.512-3.76 2.127a3.08 3.08 0 0 1-3.658-4.768c.937-1.12 1.967-2.121 3.028-3.08 1.055-.967 2.164-1.864 3.286-2.745a52.393 52.393 0 0 1 3.492-2.474c1.2-.778 2.436-1.51 3.768-2.116a3.085 3.085 0 0 1 3.658 4.768" fill="#ee87b7" fill-rule="nonzero"/><path d="M104.116 211.282c1.331.607 2.567 1.339 3.767 2.117 1.206.77 2.359 1.61 3.493 2.474 1.122.88 2.23 1.777 3.286 2.744 1.06.96 2.09 1.96 3.027 3.08a3.08 3.08 0 0 1-3.658 4.768c-1.325-.615-2.558-1.35-3.76-2.127-1.207-.769-2.36-1.608-3.5-2.463-1.129-.872-2.238-1.768-3.294-2.733-1.062-.958-2.09-1.962-3.02-3.092a3.083 3.083 0 0 1 3.659-4.768" fill="#27aae1" fill-rule="nonzero"/><path d="M141.346 216.05c-.93 1.13-1.957 2.135-3.02 3.092-1.056.965-2.165 1.862-3.293 2.733-1.141.856-2.294 1.695-3.502 2.464-1.201.776-2.434 1.512-3.758 2.127a3.08 3.08 0 0 1-3.66-4.768c.938-1.12 1.967-2.121 3.028-3.08 1.055-.967 2.165-1.864 3.286-2.745a52.393 52.393 0 0 1 3.493-2.474c1.2-.778 2.436-1.51 3.767-2.116a3.085 3.085 0 0 1 3.659 4.768" fill="#2bb673" fill-rule="nonzero"/><path d="M153.993 211.282c1.331.607 2.567 1.339 3.767 2.117 1.206.77 2.359 1.61 3.493 2.474 1.122.88 2.231 1.777 3.286 2.744 1.06.96 2.09 1.96 3.028 3.08a3.08 3.08 0 0 1-.386 4.338 3.083 3.083 0 0 1-3.273.43c-1.324-.615-2.558-1.35-3.76-2.127-1.206-.769-2.359-1.608-3.5-2.463-1.129-.872-2.237-1.768-3.294-2.733-1.062-.958-2.089-1.962-3.02-3.092a3.084 3.084 0 0 1 3.659-4.768" fill="#ffde17" fill-rule="nonzero"/><path d="M191.223 216.05c-.93 1.13-1.957 2.135-3.02 3.092a51.918 51.918 0 0 1-3.294 2.733c-1.14.856-2.293 1.695-3.5 2.464-1.202.776-2.435 1.512-3.76 2.127a3.08 3.08 0 0 1-3.658-4.768c.937-1.12 1.966-2.121 3.027-3.08 1.055-.967 2.165-1.864 3.286-2.745a52.393 52.393 0 0 1 3.493-2.474c1.2-.778 2.436-1.51 3.767-2.116a3.084 3.084 0 0 1 3.659 4.768" fill="#ee87b7" fill-rule="nonzero"/><path d="M203.87 211.282c1.331.607 2.567 1.339 3.767 2.117 1.206.77 2.359 1.61 3.493 2.474 1.122.88 2.23 1.777 3.286 2.744 1.06.96 2.09 1.96 3.027 3.08a3.08 3.08 0 0 1-3.658 4.768c-1.325-.615-2.558-1.35-3.76-2.127-1.207-.769-2.36-1.608-3.5-2.463-1.129-.872-2.238-1.768-3.294-2.733-1.062-.958-2.09-1.962-3.02-3.092a3.083 3.083 0 0 1 3.659-4.768" fill="#27aae1" fill-rule="nonzero"/><path d="M241.099 216.05c-.93 1.13-1.957 2.135-3.02 3.092-1.056.965-2.165 1.862-3.293 2.733-1.141.856-2.294 1.695-3.502 2.464-1.201.776-2.434 1.512-3.758 2.127a3.08 3.08 0 0 1-3.66-4.768c.938-1.12 1.967-2.121 3.028-3.08 1.055-.967 2.165-1.864 3.286-2.745a52.393 52.393 0 0 1 3.493-2.474c1.2-.778 2.436-1.51 3.767-2.116a3.085 3.085 0 0 1 3.659 4.768" fill="#2bb673" fill-rule="nonzero"/><path d="M253.746 211.282c1.331.607 2.567 1.339 3.767 2.117 1.206.77 2.359 1.61 3.493 2.474 1.122.88 2.231 1.777 3.286 2.744 1.06.96 2.09 1.96 3.028 3.08a3.08 3.08 0 0 1-.386 4.338 3.083 3.083 0 0 1-3.273.43c-1.324-.615-2.558-1.35-3.76-2.127-1.206-.769-2.359-1.608-3.5-2.463-1.129-.872-2.237-1.768-3.294-2.733-1.062-.958-2.089-1.962-3.02-3.092a3.084 3.084 0 0 1 3.659-4.768" fill="#ffde17" fill-rule="nonzero"/><path d="M290.976 216.05c-.93 1.13-1.957 2.135-3.02 3.092a51.918 51.918 0 0 1-3.294 2.733c-1.14.856-2.293 1.695-3.5 2.464-1.202.776-2.435 1.512-3.76 2.127a3.08 3.08 0 0 1-3.658-4.768c.937-1.12 1.966-2.121 3.027-3.08 1.055-.967 2.165-1.864 3.286-2.745a52.393 52.393 0 0 1 3.493-2.474c1.2-.778 2.436-1.51 3.767-2.116a3.084 3.084 0 0 1 3.659 4.768" fill="#ee87b7" fill-rule="nonzero"/><path d="M303.623 211.282c1.332.607 2.568 1.339 3.767 2.117 1.206.77 2.36 1.61 3.493 2.474 1.122.88 2.231 1.777 3.287 2.744 1.06.96 2.09 1.96 3.027 3.08a3.08 3.08 0 0 1-.386 4.338 3.083 3.083 0 0 1-3.273.43c-1.324-.615-2.558-1.35-3.76-2.127-1.206-.769-2.359-1.608-3.5-2.463-1.128-.872-2.237-1.768-3.294-2.733-1.062-.958-2.089-1.962-3.02-3.092a3.084 3.084 0 0 1 3.659-4.768" fill="#27aae1" fill-rule="nonzero"/><path d="M340.853 216.05c-.93 1.13-1.957 2.135-3.02 3.092a51.732 51.732 0 0 1-3.294 2.733c-1.14.856-2.293 1.695-3.5 2.464-1.202.776-2.435 1.512-3.76 2.127a3.08 3.08 0 0 1-3.658-4.768c.937-1.12 1.966-2.121 3.027-3.08 1.055-.967 2.165-1.864 3.286-2.745a52.393 52.393 0 0 1 3.493-2.474c1.2-.778 2.436-1.51 3.767-2.116a3.085 3.085 0 0 1 3.659 4.768" fill="#2bb673" fill-rule="nonzero"/><path d="M353.499 211.282c1.331.607 2.567 1.339 3.767 2.117 1.206.77 2.359 1.61 3.493 2.474 1.122.88 2.231 1.777 3.286 2.744 1.06.96 2.09 1.96 3.028 3.08a3.08 3.08 0 0 1-.386 4.338 3.083 3.083 0 0 1-3.273.43c-1.324-.615-2.558-1.35-3.76-2.127-1.206-.769-2.36-1.608-3.5-2.463-1.129-.872-2.237-1.768-3.294-2.733-1.062-.958-2.089-1.962-3.02-3.092a3.084 3.084 0 0 1 3.659-4.768" fill="#ffde17" fill-rule="nonzero"/><path d="M390.729 216.05c-.93 1.13-1.957 2.135-3.02 3.092a51.918 51.918 0 0 1-3.294 2.733c-1.14.856-2.293 1.695-3.5 2.464-1.202.776-2.435 1.512-3.76 2.127a3.08 3.08 0 0 1-3.658-4.768c.937-1.12 1.966-2.121 3.027-3.08 1.055-.967 2.165-1.864 3.286-2.745a52.579 52.579 0 0 1 3.493-2.474c1.2-.778 2.436-1.51 3.767-2.116a3.084 3.084 0 0 1 3.659 4.768" fill="#ee87b7" fill-rule="nonzero"/><path d="M453.253 211.282c1.331.607 2.567 1.339 3.767 2.117 1.206.77 2.359 1.61 3.493 2.474 1.122.88 2.23 1.777 3.286 2.744 1.06.96 2.09 1.96 3.028 3.08a3.08 3.08 0 0 1-.386 4.338 3.083 3.083 0 0 1-3.273.43c-1.324-.615-2.558-1.35-3.76-2.127-1.207-.769-2.36-1.608-3.5-2.463-1.129-.872-2.237-1.768-3.294-2.733-1.062-.958-2.09-1.962-3.02-3.092a3.083 3.083 0 0 1 3.659-4.768" fill="#ffde17" fill-rule="nonzero"/><path d="M490.483 216.05c-.93 1.13-1.957 2.135-3.02 3.092a51.918 51.918 0 0 1-3.294 2.733c-1.14.856-2.293 1.695-3.5 2.464-1.202.776-2.435 1.512-3.76 2.127a3.079 3.079 0 0 1-3.659-4.768c.938-1.12 1.967-2.121 3.028-3.08 1.055-.967 2.165-1.864 3.286-2.745a52.579 52.579 0 0 1 3.493-2.474c1.2-.778 2.436-1.51 3.767-2.116a3.084 3.084 0 0 1 3.659 4.768" fill="#ee87b7" fill-rule="nonzero"/><path d="M503.129 211.282c1.332.607 2.567 1.339 3.767 2.117 1.206.77 2.36 1.61 3.493 2.474 1.122.88 2.231 1.777 3.287 2.744 1.06.96 2.09 1.96 3.027 3.08a3.08 3.08 0 0 1-.386 4.338 3.083 3.083 0 0 1-3.273.43c-1.324-.615-2.558-1.35-3.76-2.127-1.206-.769-2.359-1.608-3.5-2.463-1.129-.872-2.237-1.768-3.294-2.733-1.062-.958-2.089-1.962-3.02-3.092a3.084 3.084 0 0 1 3.659-4.768" fill="#27aae1" fill-rule="nonzero"/><path d="M540.359 216.05c-.93 1.13-1.957 2.135-3.02 3.092a51.732 51.732 0 0 1-3.294 2.733c-1.14.856-2.293 1.695-3.5 2.464-1.202.776-2.435 1.512-3.76 2.127a3.08 3.08 0 0 1-3.658-4.768c.937-1.12 1.966-2.121 3.027-3.08 1.055-.967 2.165-1.864 3.286-2.745a52.393 52.393 0 0 1 3.493-2.474c1.2-.778 2.436-1.51 3.767-2.116a3.085 3.085 0 0 1 3.659 4.768" fill="#2bb673" fill-rule="nonzero"/><path d="M553.006 211.282c1.331.607 2.567 1.339 3.767 2.117 1.206.77 2.359 1.61 3.493 2.474 1.122.88 2.23 1.777 3.286 2.744 1.06.96 2.09 1.96 3.027 3.08a3.08 3.08 0 0 1-.385 4.338 3.083 3.083 0 0 1-3.273.43c-1.324-.615-2.558-1.35-3.76-2.127-1.207-.769-2.36-1.608-3.5-2.463-1.129-.872-2.237-1.768-3.294-2.733-1.062-.958-2.09-1.962-3.02-3.092a3.083 3.083 0 0 1 3.659-4.768" fill="#ffde17" fill-rule="nonzero"/><path d="M590.236 216.05c-.93 1.13-1.957 2.135-3.02 3.092a51.918 51.918 0 0 1-3.294 2.733c-1.14.856-2.294 1.695-3.5 2.464-1.202.776-2.435 1.512-3.76 2.127a3.08 3.08 0 0 1-4.09-1.495 3.086 3.086 0 0 1 .431-3.273c.938-1.12 1.967-2.121 3.028-3.08 1.055-.967 2.165-1.864 3.286-2.745a52.579 52.579 0 0 1 3.493-2.474c1.2-.778 2.436-1.51 3.767-2.116a3.084 3.084 0 0 1 3.659 4.768" fill="#ee87b7" fill-rule="nonzero"/><path d="M403.376 211.282c1.332.607 2.567 1.339 3.767 2.117 1.206.77 2.36 1.61 3.493 2.474 1.122.88 2.231 1.777 3.287 2.744 1.06.96 2.09 1.96 3.027 3.08a3.08 3.08 0 0 1-.386 4.338 3.083 3.083 0 0 1-3.273.43c-1.324-.615-2.558-1.35-3.76-2.127-1.206-.769-2.359-1.608-3.5-2.463-1.128-.872-2.237-1.768-3.294-2.733-1.062-.958-2.089-1.962-3.02-3.092a3.084 3.084 0 0 1 3.659-4.768" fill="#27aae1" fill-rule="nonzero"/><path d="M440.489 215.898a3.415 3.415 0 0 1-.64 1.527c-.294.403-.648.728-1.052.989-.402.263-.85.466-1.352.599a4.277 4.277 0 0 1-1.743.089 3.543 3.543 0 0 1-2.972-3.873 4.28 4.28 0 0 1 .537-1.661c.259-.45.57-.831.928-1.151a3.94 3.94 0 0 1 1.228-.76 3.406 3.406 0 0 1 1.64-.223 3.89 3.89 0 0 1 3.426 4.464" fill="#2bb673" fill-rule="nonzero"/><path d="M130.367 82.333a3.498 3.498 0 0 1-2.008-.434l27.29 35.8c.483.634 1.494.269 1.46-.526l-1.871-44.376a3.65 3.65 0 0 1-.732.389c-.164.075-.32.106-.497.143-.203 1.163-.526 3.423-3.687 3.242-.06 2.55-2.294 1.748-3.58 3.819-2.265 3.679-4.124-.813-4.225-.8.766 1.56-.928 2.33-2.73 3.03-1.229.47-2.563.172-3.5-.637-.391.72-.99 1.318-1.81 1.63-1.524.588-3.204.004-4.11-1.28z" fill="#e2d860" fill-rule="nonzero" stroke="#231f20" stroke-width="1.9958105999999998"/><g transform="matrix(.66306 0 0 .66306 -434.915 -323.193)"><clipPath id="a"><path d="M889.257 598.217c-.247.113-.485.16-.751.216-.305 1.755-.793 5.162-5.56 4.889-.089 3.848-3.46 2.638-5.401 5.76-2.201 3.577-4.149 2.034-5.297.49-.631-.852-1.02-1.703-1.074-1.697 1.156 2.355-1.4 3.516-4.117 4.572-1.852.706-3.865.257-5.279-.962-.59 1.086-1.493 1.988-2.728 2.46-2.3.885-4.834.004-6.2-1.932a5.284 5.284 0 0 1-3.029-.654l41.159 53.993c.728.955 2.253.404 2.202-.795l-2.823-66.926a5.525 5.525 0 0 1-1.102.586z" clip-rule="nonzero"/></clipPath><g opacity=".36" clip-path="url(#a)"><clipPath id="b"><path clip-rule="nonzero" d="M852.746 591.627h71.325v67.943h-71.325z"/></clipPath><g clip-path="url(#b)"><path d="M894.815 604.398s-16.734 17.767-41.981 16.133M899.213 610.244s-16.734 17.767-41.981 16.133M903.063 615.36s-16.734 17.768-41.981 16.134M906.913 620.479s-16.734 17.767-41.981 16.133M911.267 626.267s-16.734 17.767-41.981 16.133M915.26 631.576s-16.733 17.767-41.98 16.133M919.225 636.845s-16.734 17.767-41.981 16.133M923.075 641.962s-16.734 17.767-41.981 16.133M904.207 611.209s-24.401.486-40.906-18.689M903.11 618.442s-24.401.486-40.906-18.689M902.15 624.773s-24.401.486-40.906-18.689M901.19 631.105s-24.401.486-40.906-18.689M900.105 638.266s-25.584-.55-45.265-23.865M899.108 644.834s-24.401.486-40.906-18.689M898.12 651.353s-24.401.486-40.906-18.689M897.16 657.685s-24.401.486-40.906-18.689" fill="none" stroke="#a97b50" stroke-width="2.74" stroke-linecap="butt" stroke-linejoin="miter"/></g></g></g><path d="M130.367 82.333a3.498 3.498 0 0 1-2.008-.434l27.29 35.8c.483.634 1.494.269 1.46-.526l-1.871-44.376a3.65 3.65 0 0 1-.732.389c-.164.075-.32.106-.497.143-.203 1.163-.526 3.423-3.687 3.242-.06 2.55-2.294 1.748-3.58 3.819-2.265 3.679-4.124-.813-4.225-.8.766 1.56-.928 2.33-2.73 3.03-1.229.47-2.563.172-3.5-.637-.391.72-.99 1.318-1.81 1.63-1.524.588-3.204.004-4.11-1.28z" fill="none" stroke="#231f20" stroke-width="1.9958105999999998"/><path d="M127.708 76.524a3.52 3.52 0 0 0-1.783 4.087c.441 1.543 1.863 2.525 3.386 2.525l.74.901a3.531 3.531 0 0 0 3.266.742c.842-.24 1.503-.782 1.964-1.463a3.45 3.45 0 0 0 3.446.942 3.513 3.513 0 0 0 2.404-4.348c0-.02 0-.02-.02-.04h.02c.06.22.14.42.24.641a3.49 3.49 0 0 0 4.688 1.583 3.486 3.486 0 0 0 1.603-4.688c.861 1.121 2.324 1.683 3.766 1.282 1.222-.34 2.083-1.302 2.404-2.444.18-.02.341-.04.52-.08.562-.16 1.043-.44 1.424-.822a3.435 3.435 0 0 0 .981-3.505 3.505 3.505 0 0 0-3.666-2.545 15.852 15.852 0 0 0 .24-9.516c-2.424-8.514-11.298-13.443-19.793-11.018-8.515 2.424-13.462 11.299-11.038 19.813a15.903 15.903 0 0 0 5.208 7.953z" fill="#ee87b7" fill-rule="nonzero" stroke="#231f20" stroke-width="2.0024412"/><path d="M129.31 83.135c.2.341.44.662.741.902l-.741-.902z" fill="none" stroke="#231f20" stroke-width="2.0024412"/><path d="M103.232 123.919c.025-.013.038-.05.064-.062l.476-.596c.272.26.6.476.966.643l2.818-.014a3.496 3.496 0 0 0 1.555-1.344c1.57.048 3.047-.943 3.494-2.515.243-.842.125-1.68-.216-2.425 1.21-.263 2.25-1.151 2.615-2.414.26-.925.49-1.838.447-2.564-.04-.68.458-1.27 1.115-1.447.916-.247 1.586-.976.836-2.888-.882-2.273 1.103-3.576-.9-5.157 2.045-2.417.434-4.034-.374-4.895.077-.164.146-.308.185-.484.07-.27.122-.547.128-.818a3.471 3.471 0 0 0-2.542-3.486c-1.639-.47-3.338.3-4.063 1.756a16.003 16.003 0 0 0-7.97-5.197c-8.503-2.435-17.366 2.444-19.768 10.917-2.413 8.448 2.535 17.265 11.038 19.7a15.83 15.83 0 0 0 4.956.605 3.028 3.028 0 0 0 1.018 3.055c1.27.997 3.1.839 4.122-.37" fill="#754d29" fill-rule="nonzero"/><path d="M103.232 123.919c.025-.013.038-.05.064-.062l.476-.596c.272.26.6.476.966.643l2.818-.014a3.496 3.496 0 0 0 1.555-1.344c1.57.048 3.047-.943 3.494-2.515.243-.842.125-1.68-.216-2.425 1.21-.263 2.25-1.151 2.615-2.414.26-.925.49-1.838.447-2.564-.04-.68.458-1.27 1.115-1.447.916-.247 1.586-.976.836-2.888-.882-2.273 1.103-3.576-.9-5.157 2.045-2.417.434-4.034-.374-4.895.077-.164.146-.308.185-.484.07-.27.122-.547.128-.818a3.471 3.471 0 0 0-2.542-3.486c-1.639-.47-3.338.3-4.063 1.756a16.003 16.003 0 0 0-7.97-5.197c-8.503-2.435-17.366 2.444-19.768 10.917-2.413 8.448 2.535 17.265 11.038 19.7a15.83 15.83 0 0 0 4.956.605 3.028 3.028 0 0 0 1.018 3.055c1.27.997 3.1.839 4.122-.37z" fill="none" stroke="#231f20" stroke-width="1.9958105999999998"/><path d="M109.11 122.546a3.498 3.498 0 0 1-1.554 1.344l45.015-.285c.797-.006 1.112-1.033.457-1.484L116.44 96.94c-.007.27-.058.548-.129.818-.038.176-.108.32-.184.484.808.861 2.418 2.478.374 4.895 2.003 1.58.018 2.884.899 5.157.822 2.093-.06 2.768-1.1 2.946-.554.094-.966.591-.877 1.145.123.758-.13 1.777-.42 2.808-.365 1.263-1.405 2.15-2.615 2.413.34.746.459 1.584.216 2.426-.448 1.572-1.925 2.563-3.495 2.515z" fill="#e2d860" fill-rule="nonzero" stroke="#231f20" stroke-width="1.9958105999999998"/><g transform="matrix(.66306 0 0 .66306 -434.915 -323.193)"><clipPath id="c"><path d="M831.86 634.864c-.058.266-.164.483-.279.729 1.219 1.3 3.648 3.737.564 7.383 3.021 2.385.027 4.351 1.356 7.778 1.246 3.173.236 4.226-1.022 4.529-.666.16-1.199.719-1.213 1.404-.021 1.123-.898 2.756-1.381 4.472-.549 1.905-2.118 3.243-3.942 3.64.513 1.124.691 2.388.325 3.658-.675 2.37-2.903 3.866-5.271 3.793a5.269 5.269 0 0 1-2.344 2.027l67.891-.43c1.201-.008 1.677-1.557.689-2.238l-55.179-37.979c-.01.409-.089.827-.194 1.234z" clip-rule="nonzero"/></clipPath><g opacity=".36" clip-path="url(#c)"><clipPath id="d"><path clip-rule="nonzero" d="M811.613 629.926h77.365v57.192h-77.365z"/></clipPath><g clip-path="url(#d)"><path d="M840.139 634.138s4.138 24.053-12.345 43.245M847.455 634.138s4.138 24.053-12.345 43.245M853.858 634.138s4.138 24.053-12.345 43.245M860.263 634.138s4.138 24.053-12.346 43.246M867.505 634.138s4.138 24.053-12.346 43.246M874.149 634.138s4.138 24.053-12.345 43.245M880.743 634.138s4.138 24.053-12.346 43.246M887.147 634.138s4.138 24.053-12.346 43.246M851.229 630.728s-14.282 19.791-39.526 21.453M856.35 635.952s-14.282 19.792-39.527 21.452M860.833 640.526s-14.282 19.79-39.527 21.452M865.315 645.1s-14.282 19.79-39.527 21.452M870.384 650.27s-15.82 20.114-46.283 21.826M875.035 655.017s-14.281 19.79-39.527 21.452M879.65 659.726s-14.282 19.79-39.527 21.452M884.132 664.3s-14.282 19.79-39.527 21.452" fill="none" stroke="#a97b50" stroke-width="2.74" stroke-linecap="butt" stroke-linejoin="miter"/></g></g></g><path d="M109.11 122.546a3.498 3.498 0 0 1-1.554 1.344l45.015-.285c.797-.006 1.112-1.033.457-1.484L116.44 96.94c-.007.27-.058.548-.129.818-.038.176-.108.32-.184.484.808.861 2.418 2.478.374 4.895 2.003 1.58.018 2.884.899 5.157.79 2.01.007 2.712-.979 2.922-.616.132-1.049.665-.982 1.292.08.743-.162 1.708-.437 2.685-.364 1.263-1.404 2.15-2.614 2.413.34.746.459 1.584.216 2.426-.448 1.572-1.925 2.563-3.495 2.515z" fill="none" stroke="#231f20" stroke-width="1.9958105999999998"/><path d="M463.862 82.81c.692.06 1.392-.09 2.008-.434l-27.29 35.8c-.483.634-1.494.269-1.46-.526l1.871-44.376c.221.157.473.282.731.389.164.075.322.106.498.143.202 1.163.526 3.423 3.687 3.242.06 2.55 2.294 1.749 3.58 3.819 2.265 3.679 4.124-.813 4.225-.8-.766 1.56.928 2.33 2.73 3.03 1.228.47 2.563.172 3.5-.637.391.72.99 1.318 1.81 1.631 1.524.587 3.204.003 4.11-1.28z" fill="#e2d860" fill-rule="nonzero" stroke="#231f20" stroke-width="1.9958105999999998"/><g transform="matrix(.66306 0 0 .66306 -434.915 -323.193)"><clipPath id="e"><path d="M1314.87 665.276c-.05 1.2 1.47 1.751 2.2.796l41.16-53.994c-.93.52-1.99.745-3.03.655-1.37 1.935-3.9 2.817-6.2 1.931-1.24-.471-2.14-1.374-2.73-2.459-1.41 1.22-3.43 1.669-5.28.962-2.72-1.056-5.27-2.218-4.12-4.572-.05-.006-.44.845-1.07 1.696-1.15 1.544-3.1 3.088-5.3-.49-1.94-3.122-5.31-1.912-5.4-5.758-4.76.272-5.25-3.135-5.56-4.89-.26-.057-.5-.102-.75-.216a5.405 5.405 0 0 1-1.1-.587l-2.82 66.926z" clip-rule="nonzero"/></clipPath><g opacity=".36" clip-path="url(#e)"><clipPath id="f"><path clip-rule="nonzero" d="M1283.98 592.347h71.32v67.943h-71.32z"/></clipPath><g clip-path="url(#f)"><path d="M1313.236 605.117s16.733 17.768 41.98 16.134M1308.836 610.963s16.733 17.768 41.98 16.134M1304.986 616.08s16.733 17.768 41.98 16.134M1301.136 621.198s16.733 17.768 41.98 16.134M1296.786 626.986s16.733 17.768 41.98 16.134M1292.786 632.295s16.733 17.768 41.98 16.134M1288.826 637.564s16.733 17.768 41.98 16.134M1284.976 642.681s16.733 17.768 41.98 16.134M1303.838 611.928s24.401.486 40.905-18.689M1304.938 619.161s24.401.486 40.905-18.689M1305.898 625.493s24.401.486 40.905-18.689M1306.858 631.824s24.401.486 40.905-18.689M1307.943 638.986s25.584-.55 45.265-23.865M1308.938 645.554s24.401.486 40.905-18.689M1309.928 652.073s24.401.486 40.905-18.689M1310.888 658.404s24.401.486 40.905-18.689" fill="none" stroke="#a97b50" stroke-width="2.74" stroke-linecap="butt" stroke-linejoin="miter"/></g></g></g><path d="M463.862 82.81c.692.06 1.392-.09 2.008-.434l-27.29 35.8c-.483.634-1.494.269-1.46-.526l1.871-44.376c.221.157.473.282.731.389.164.075.322.106.498.143.202 1.163.526 3.423 3.687 3.242.06 2.55 2.294 1.749 3.58 3.819 2.265 3.679 4.124-.813 4.225-.8-.766 1.56.928 2.33 2.73 3.03 1.228.47 2.563.172 3.5-.637.391.72.99 1.318 1.81 1.631 1.524.587 3.204.003 4.11-1.28z" fill="none" stroke="#231f20" stroke-width="1.9958105999999998"/><path d="M487.194 123.18c.369.589.908 1.057 1.554 1.343l-45.015-.284c-.797-.005-1.112-1.032-.457-1.483l36.586-25.184c.007.271.058.548.129.818.038.176.108.32.185.483-.809.862-2.42 2.479-.374 4.896-2.004 1.581-.019 2.884-.9 5.157-1.578 4.021 3.129 2.807 3.18 2.895-1.709.326-1.306 2.144-.782 4.003.364 1.264 1.404 2.151 2.615 2.415-.34.745-.459 1.583-.216 2.425.447 1.572 1.925 2.564 3.495 2.515z" fill="#e2d860" fill-rule="nonzero" stroke="#231f20" stroke-width="1.9958105999999998"/><g transform="matrix(.66306 0 0 .66306 -434.915 -323.193)"><clipPath id="g"><path d="M1323.95 672.566c-.99.681-.52 2.23.68 2.238l67.9.428a5.291 5.291 0 0 1-2.35-2.027c-2.37.072-4.59-1.423-5.27-3.793-.36-1.27-.19-2.535.33-3.659-1.83-.396-3.4-1.734-3.95-3.639-.79-2.807-1.4-5.547 1.18-6.039-.01-.027-.31.025-.75.077-1.78.207-5.95.414-4.04-4.443 1.33-3.428-1.67-5.393 1.35-7.778-3.08-3.646-.65-6.083.57-7.383a3.237 3.237 0 0 1-.28-.73 5.27 5.27 0 0 1-.2-1.233l-55.17 37.981z" clip-rule="nonzero"/></clipPath><g opacity=".36" clip-path="url(#g)"><clipPath id="h"><path clip-rule="nonzero" d="M1322.2 630.882h77.36v57.192h-77.36z"/></clipPath><g clip-path="url(#h)"><path d="M1371.04 635.093s-4.137 24.054 12.349 43.245M1363.72 635.094s-4.137 24.054 12.349 43.245M1357.32 635.094s-4.137 24.053 12.348 43.244M1350.91 635.094s-4.137 24.053 12.348 43.244M1343.67 635.095s-4.137 24.053 12.348 43.244M1337.03 635.095s-4.137 24.054 12.349 43.245M1330.43 635.095s-4.137 24.053 12.348 43.244M1324.03 635.095s-4.137 24.053 12.348 43.244M1359.95 631.683s14.284 19.792 39.53 21.452M1354.83 636.907s14.283 19.791 39.529 21.452M1350.34 641.481s14.284 19.792 39.529 21.452M1345.86 646.055s14.283 19.791 39.527 21.452M1340.797 651.229s15.821 20.112 46.283 21.823M1336.14 655.973s14.284 19.792 39.529 21.452M1331.53 660.683s14.283 19.79 39.528 21.452M1327.04 665.256s14.283 19.79 39.53 21.452" fill="none" stroke="#a97b50" stroke-width="2.74" stroke-linecap="butt" stroke-linejoin="miter"/></g></g></g><path d="M487.194 123.18c.369.589 5.028 1.057 5.674 1.343l-49.135-.284c-.797-.005-1.112-1.032-.457-1.483l36.586-25.184c.007.271.058.548.129.818.038.176.108.32.185.483-.809.862-2.42 2.479-.374 4.896-2.004 1.581-.019 2.884-.9 5.157-1.578 4.021 3.129 2.807 3.18 2.895-1.709.326-1.306 2.144-.782 4.003.364 1.264 1.404 2.151 2.615 2.415-.34.745-.459 1.583-.216 2.425.447 1.572 1.925 2.564 3.495 2.515z" fill="none" stroke="#231f20" stroke-width="1.9958105999999998"/><path d="M465.216 83.137c-.2.34-.44.66-.741.9l.741-.9z" fill="none" stroke="#231f20" stroke-width="2.0024412"/><path d="M491.291 123.908c-.026-.012-.038-.05-.064-.063l-.478-.6c-.27.261-.6.478-.966.645l-2.82-.02a3.52 3.52 0 0 1-1.557-1.355c-1.572.045-3.052-.955-3.503-2.537-.244-.848-.128-1.691.211-2.44-1.211-.267-2.254-1.162-2.62-2.434-.265-.936-.499-1.862-.453-2.594.042-.675-.456-1.265-1.11-1.441-.922-.249-1.601-.98-.851-2.91.877-2.285-1.112-3.6.889-5.186-2.051-2.437-.442-4.06.365-4.925-.077-.164-.148-.31-.187-.486a3.73 3.73 0 0 1-.13-.824 3.473 3.473 0 0 1 2.538-3.501 3.472 3.472 0 0 1 4.068 1.774 15.927 15.927 0 0 1 7.966-5.212c8.503-2.432 17.382 2.495 19.802 11.024 2.433 8.503-2.5 17.364-11.004 19.796a15.73 15.73 0 0 1-4.957.599c.264 1.095-.085 2.313-1.013 3.07-1.269 1.001-3.1.838-4.126-.38z" fill="#93ce9c" fill-rule="nonzero" stroke="#231f20" stroke-width="2.0024412"/><path d="M466.819 76.526a3.519 3.519 0 0 1 1.783 4.087c-.441 1.542-1.863 2.524-3.386 2.524l-.74.901a3.529 3.529 0 0 1-3.266.741c-.842-.24-1.503-.78-1.964-1.462a3.45 3.45 0 0 1-3.446.942 3.513 3.513 0 0 1-2.403-4.348c0-.02 0-.02.02-.04h-.02c-.06.22-.14.42-.24.64a3.489 3.489 0 0 1-4.689 1.584 3.485 3.485 0 0 1-1.602-4.688c-.862 1.122-2.324 1.683-3.767 1.282-1.222-.34-2.083-1.302-2.404-2.444a4.88 4.88 0 0 1-.52-.08 3.253 3.253 0 0 1-1.423-.822 3.434 3.434 0 0 1-.982-3.505 3.506 3.506 0 0 1 3.667-2.545 15.85 15.85 0 0 1-.241-9.516c2.424-8.515 11.299-13.442 19.793-11.018 8.515 2.424 13.463 11.299 11.039 19.813a15.91 15.91 0 0 1-5.209 7.954z" fill="#fff" fill-rule="nonzero" stroke="#231f20" stroke-width="2.0024412"/></svg>