<svg xmlns="http://www.w3.org/2000/svg" viewBox="0 0 178.5 96.29"><defs><style>.cls-1{fill:#fff;}.cls-2{fill:none;}</style></defs><title>Asset 1</title><g id="Layer_2" data-name="Layer 2"><g id="Vegan_Label" data-name="Vegan Label"><path class="cls-1" d="M66.1,95.64l.06-6.19h1.06l-.06,6.2Z"/><path class="cls-1" d="M70.5,92.59a3.1,3.1,0,0,1,3.15-3.2,2.7,2.7,0,0,1,2.77,2l-1,.32a1.72,1.72,0,0,0-1.79-1.37,2.24,2.24,0,0,0,0,4.47,1.85,1.85,0,0,0,1.86-1.34l1,.32a2.79,2.79,0,0,1-2.83,2A3.07,3.07,0,0,1,70.5,92.59Z"/><path class="cls-1" d="M79.65,95.78l.06-6.2,3.83,0v1l-2.78,0,0,1.64,2.52,0v1l-2.52,0,0,1.64,2.78,0v1Z"/><path class="cls-1" d="M90.94,92.8a3.11,3.11,0,0,1,3.15-3.2,2.7,2.7,0,0,1,2.77,2l-1,.32a1.71,1.71,0,0,0-1.79-1.37,2.24,2.24,0,0,0,0,4.47,1.85,1.85,0,0,0,1.86-1.34l1,.33a2.78,2.78,0,0,1-2.83,2A3.07,3.07,0,0,1,90.94,92.8Z"/><path class="cls-1" d="M102,93.56h-.77l0,2.45H100.1l.06-6.2,2.38,0a1.82,1.82,0,0,1,1.92,1.9A1.75,1.75,0,0,1,103,93.47L104.42,96h-1.19Zm.37-.92a1,1,0,1,0,0-1.9h-1.13l0,1.9Z"/><path class="cls-1" d="M107.73,96.07l.06-6.19,3.83,0v1l-2.78,0,0,1.65,2.52,0v1l-2.52,0,0,1.64,2.78,0v1Z"/><path class="cls-1" d="M118.67,94.62l-2.62,0-.6,1.55h-1.11L116.82,90H118l2.35,6.22h-1.14Zm-2.25-1,1.89,0-.92-2.54Z"/><path class="cls-1" d="M129.18,96.28l0-4.56-2,4.54h-.91l-1.87-4.56,0,4.54h-1l.06-6.19h1.4l2,4.75,2-4.71h1.43l-.06,6.19Z"/><path class="cls-1" d="M15.94,93.33a17.18,17.18,0,0,1-11.43-4A12.59,12.59,0,0,1,0,79.39a16.1,16.1,0,0,1,3.06-9.14,20.32,20.32,0,0,1,7.59-6.52l.51-.25a23.39,23.39,0,0,1,8.58-2.05h.11c2.31.05,3.67,1.51,3.66,2.89A2.8,2.8,0,0,1,22.87,66l-1,1.33a1.43,1.43,0,0,0-.18.26l0,.32-.17.17a.7.7,0,0,1,0,.27,1.83,1.83,0,0,0,.76,1.47,3.38,3.38,0,0,0,2.19.75,8.74,8.74,0,0,0,1.16-.07,3.67,3.67,0,0,0,.95-.27,12.46,12.46,0,0,0,4.7-3.62,79.71,79.71,0,0,0,6.57-9.14L40,54.33c-1,.06-1.92.1-2.76.09h-.41c-6.35-.06-11.55-1.5-15.44-4.26a13.29,13.29,0,0,1-6-11.37,12.5,12.5,0,0,1,4.68-9.66A16,16,0,0,1,30.85,25.3h.87a18,18,0,0,1,5,1,19.5,19.5,0,0,1-1.41-1.55,10.76,10.76,0,0,1-1.77-3.13,10.29,10.29,0,0,1-.33-1.21,3.84,3.84,0,0,1-.47.56,7.46,7.46,0,0,1-2.33,1.44,16.37,16.37,0,0,1-6.42,1.18h-.2a15.13,15.13,0,0,1-9.88-3.21,10.55,10.55,0,0,1-3.79-8.51,11,11,0,0,1,4.17-8.58A14.54,14.54,0,0,1,23.84,0h.81a4.62,4.62,0,0,1,.81.08,18.61,18.61,0,0,1,4.34,1c1.51.5,3.47,1.28,6,2.39l.22.1,1.89.86.22.11,1.34.66.24.12.34.14.12.07.41.24L41,6a24.1,24.1,0,0,1,6.19-2.85,24.89,24.89,0,0,1,7.1-1h.22a17.57,17.57,0,0,1,10,2.78c2.79,2,4.14,4.34,4.13,7.29a7.42,7.42,0,0,1-2,5A7.91,7.91,0,0,1,68.46,17a6.58,6.58,0,0,1,4.22,1.38,4.71,4.71,0,0,1,1.76,3.28l.44-.35c.71-.58,1.32-1,1.92-1.42a19.38,19.38,0,0,1,2-1.17,19.85,19.85,0,0,1,3-1.1,10.86,10.86,0,0,1,2.82-.38,5.61,5.61,0,0,1,3.93,1.42,4.85,4.85,0,0,1,1.09,1.48,7.15,7.15,0,0,1,.73-.74,7.74,7.74,0,0,1,5.3-1.93,6.58,6.58,0,0,1,5.17,2.31,7.58,7.58,0,0,1,1.68,3.74c.18-.17.35-.35.54-.51a18.93,18.93,0,0,1,12.82-4.83H116a10.65,10.65,0,0,1,6.82,2.24,7,7,0,0,1,2.6,4.1c.44-.46.86-.87,1.3-1.26a18.94,18.94,0,0,1,12.82-4.83h.18a10.68,10.68,0,0,1,6.83,2.24,8,8,0,0,1,1.3,1.34,8,8,0,0,1,1.32-1.63c.8-.79,2.24-2.06,4.29-3.77a46.58,46.58,0,0,1,5.45-4,8,8,0,0,1,3.9-1.44,3.36,3.36,0,0,1,2.25.84,2.86,2.86,0,0,1,.91,2.37,4.31,4.31,0,0,1-.17,1.06,9.26,9.26,0,0,1-.35,1c0,.07-.09.28-.19.5,0,.06-.06.17-.09.28l0,.13-.14.43-.13.4-.13.45h1.16a3.71,3.71,0,0,1,2.52.85,3.13,3.13,0,0,1,1,2.48,7.93,7.93,0,0,1-1.11,4.42,4.26,4.26,0,0,1-3.71,1.83l-2.24,0,0,.1c-.13.48-1.5,6.28-1.59,6.83a6.57,6.57,0,0,0-.1,1.08A1,1,0,0,0,161,37a1.72,1.72,0,0,0,1.11.29,3,3,0,0,0,.74-.11,12.54,12.54,0,0,0,1.33-.42,6.6,6.6,0,0,1,1-.34,4.1,4.1,0,0,1,1-.15,2.67,2.67,0,0,1,1.9.78,2.7,2.7,0,0,1,.74,2,4.37,4.37,0,0,1-.95,2.52,11,11,0,0,1-2.21,2.18l-.41.31a21.26,21.26,0,0,1-4,2.08,15.06,15.06,0,0,1-3.83.88l-.92.09c-.26,0-.54,0-.82,0h-.21A10,10,0,0,1,149,44.81a7.42,7.42,0,0,1-2.24-3.06l-.57.48a25,25,0,0,1-6.25,3.51,17.85,17.85,0,0,1-6.29,1.16h-.14a12.74,12.74,0,0,1-8.94-3.36,10.58,10.58,0,0,1-1.6-2l-.51.42a26.31,26.31,0,0,1-4,2.5l.16.12a5,5,0,0,1,1.7,4,6,6,0,0,1-2.63,4.76,9,9,0,0,1-3,1.53,4.41,4.41,0,0,1,1.85.94l.1.09h0a4.11,4.11,0,0,1,1.33,3v.75c0,.23,0,3,3.29-.17a16.51,16.51,0,0,1,11.86-4.72h.14a11.7,11.7,0,0,1,8.55,3.36c.18.19.35.38.51.57l.6-.44a22.67,22.67,0,0,1,5-2.95,12.46,12.46,0,0,1,4.69-1,5.65,5.65,0,0,1,4,1.35,4.35,4.35,0,0,1,.85,1.13,8.41,8.41,0,0,1,5.1-1.85,8.16,8.16,0,0,1,3.26.72c4.2,1.85,4,7.41,3.75,12.31-.12,2.92-.27,6.23.71,7.34a2.36,2.36,0,0,0,1.43.94c.06,0,.09,0,.13-.13a2.31,2.31,0,0,1,.59-1.75,2.09,2.09,0,0,1,1.56-.63h.27c1.44.18,2.71,1.78,3.16,2.75a10.22,10.22,0,0,1-.56,10.05A10.67,10.67,0,0,1,168,91.66h0a12.51,12.51,0,0,1-9.2-4.23,14,14,0,0,1-3.28-10.94c.18-1.73.44-3.42.67-4.9.2-1.33.45-2.95.51-4a5.77,5.77,0,0,0-.85,2L154,77.42a7.59,7.59,0,0,1-2.26,4,5.84,5.84,0,0,1-4,1.55l-2.94,0a7.37,7.37,0,0,0-1.42.12,2.94,2.94,0,0,0-1,.4l-.09.06-.12.05-.61.47-3.44,2.51,1.9-8.22,0,0a16.36,16.36,0,0,1-11.8,4.7H128a11.91,11.91,0,0,1-8.54-3.38c-.23-.23-.45-.48-.66-.74l-.51.47a7.14,7.14,0,0,1-1.05.78c-.61.38-1.13.67-1.63.92s-1,.52-1.55.73l-.1,0a20.62,20.62,0,0,1-2.58.73,12.34,12.34,0,0,1-2.43.26,7.85,7.85,0,0,1-5.26-1.8,6,6,0,0,1-1.68-2.4l-.53.44-.42.31a3.59,3.59,0,0,1-.54.35,13.88,13.88,0,0,1-3.33,1.68,16.22,16.22,0,0,1-3.69.85c-.33,0-.65.07-1,.09l-.85,0h-.11a9.63,9.63,0,0,1-6.29-2.16,7.31,7.31,0,0,1-2-2.57l-.7.63a23.4,23.4,0,0,1-3.79,2.6A19.8,19.8,0,0,1,75,82.52,16.08,16.08,0,0,1,72.6,83a16.37,16.37,0,0,1-2.25.16h-.12a13.35,13.35,0,0,1-9.33-3.62,12.79,12.79,0,0,1-2.06,2.77,10.6,10.6,0,0,1-7.33,3.51h-.26a7.1,7.1,0,0,1-5.82-2.62,10.38,10.38,0,0,1-1.94-6.77,16.9,16.9,0,0,1,.16-2.08c.1-.77.22-1.6.36-2.44l.14-1v-.22A.46.46,0,0,0,44,70.4a.85.85,0,0,0-.58-.21,1.79,1.79,0,0,0-.94.21,3,3,0,0,0-.89,1.13l-.09.15a4.61,4.61,0,0,0-.46.86L40.42,74c-.16.42-.46,1.09-.85,1.95s-.87,1.76-1.32,2.58l-.14.33-.19.39-.16.3-.11.23a25.08,25.08,0,0,1-9,10,23,23,0,0,1-12.46,3.51ZM98.2,63.49c-.23.91-.53,2.12-.68,2.82-.07.33-.15.72-.28,1.2l-.17.72c-.09.38-.2.8-.3,1.25a10.47,10.47,0,0,0-.28,1.22v.52l-.12.12a4.49,4.49,0,0,1,0,.58,1.51,1.51,0,0,0,.38,1.14,2,2,0,0,0,1.41.42,3.4,3.4,0,0,0,.85-.11c.39-.1.88-.26,1.36-.43a5.93,5.93,0,0,1,.59-.22l0,0,0,0,.4-.07a3.3,3.3,0,0,1,.84-.12h.08l2.3-8.69v-.43l.16-.16a4.52,4.52,0,0,1,.06-.5v-.15l.06-.16c0-.16,0-.36,0-.58a1.14,1.14,0,0,0-.17-.63,1.38,1.38,0,0,0-.21-.23,4.51,4.51,0,0,1-.49,1,3.91,3.91,0,0,1-3.38,1.63ZM60.93,44.55a3.93,3.93,0,0,1,1.28,2.87v.7a4.23,4.23,0,0,1-.64,1.7c-.26.44-.79,1.38-1.59,2.81a21.07,21.07,0,0,0-1.67,3.71c-.52,1.49-1,3-1.46,4.61s-.58,2.72-.78,3.94a22.57,22.57,0,0,0-.32,3.31,6.33,6.33,0,0,0,.7,3.2,2.47,2.47,0,0,0,.64.8h0a13.12,13.12,0,0,1-.1-1.72,16.22,16.22,0,0,1,5.58-12,17.86,17.86,0,0,1,12.52-5h.17a11.93,11.93,0,0,1,7.39,2.33,8.47,8.47,0,0,1,1.82,2,7.78,7.78,0,0,1,1.09-1.31c.83-.81,2.31-2.11,4.29-3.76a45.23,45.23,0,0,1,5.39-4,7.68,7.68,0,0,1,3.65-1.39,2.87,2.87,0,0,1,2,.73,2.46,2.46,0,0,1,.78,1.78l0,.31a4.36,4.36,0,0,1-.13.87,8.55,8.55,0,0,1-.35,1.07l-.13.34,0,.12c-.1.24-.41,1.26-.41,1.27l-.26,1,1.71,0a3.32,3.32,0,0,1,2.21.72,2.75,2.75,0,0,1,.88,2.17s0,0,0,0a14.09,14.09,0,0,1,3.27-2.05,13.08,13.08,0,0,1,1.89-.64A5.19,5.19,0,0,1,108,53.76,4.93,4.93,0,0,1,106.4,50a6.14,6.14,0,0,1,1.13-3.51,12.15,12.15,0,0,1-6.73-3.18,10.68,10.68,0,0,1-2.91-4.68,23.35,23.35,0,0,1-2,2.39,17.11,17.11,0,0,1-5.74,4.06,16.92,16.92,0,0,1-6.64,1.32H83.4a10.27,10.27,0,0,1-4.34-.86,8,8,0,0,1-2.65-2.06l-.62.41a17.35,17.35,0,0,1-4.15,1.71,16.69,16.69,0,0,1-4.15.51h-.15A10.46,10.46,0,0,1,60.94,44C60.79,43.86,60.5,44.11,60.93,44.55Zm11.77,19a5.5,5.5,0,0,0-.79,3A4.55,4.55,0,0,0,73,69.89a4.08,4.08,0,0,0,3.11,1.2h.76l.29,0,.11,0a3,3,0,0,0,1-.27c.54-.21,1.39-.59,2.61-1.14a7.81,7.81,0,0,1,2.47-.51,3.24,3.24,0,0,1,.53,0c.25-.75.55-1.66.92-2.74l0-.09c.2-.6.43-1.37.43-1.37.1-.36.52-1.73.52-1.73l0-.16L85.63,63a6.51,6.51,0,0,1-2,3.86,6.62,6.62,0,0,1-4.81,1.93,6.26,6.26,0,0,1-4.48-1.71A5.59,5.59,0,0,1,72.7,63.56ZM42,30.55a3.56,3.56,0,0,1,.12.56v.38a3.68,3.68,0,0,1-.05.58l0,.23-.23.45a2.57,2.57,0,0,1-1,1c-.23.14-.61.35-1.12.62l-.23.12a1.41,1.41,0,0,0-.59.54,1.57,1.57,0,0,0-.24.86,2.11,2.11,0,0,0,.87,1.65,3.73,3.73,0,0,0,2.41.84,4.43,4.43,0,0,0,2.9-.89,2.63,2.63,0,0,0,1.05-2.12,4.22,4.22,0,0,0-.07-.81,2,2,0,0,0-.23-.61l-.15-.28a7.48,7.48,0,0,0-1.22-1.42l-.08-.07C43.53,31.76,42.83,31.2,42,30.55Zm45.61,3.38a4.83,4.83,0,0,0-.11.81,2,2,0,0,0,.19.82s.13.14.47.14a3.57,3.57,0,0,0,2.8-1.81A12.5,12.5,0,0,0,92.72,30a4.93,4.93,0,0,1-3.21-1.61,5.41,5.41,0,0,1-.52-.63Zm-15.8.36c0,.24-.09.52-.14.77a1.63,1.63,0,0,0,0,.28.64.64,0,0,0,.53.2,1.13,1.13,0,0,0,.9-.4A4.81,4.81,0,0,0,74,33.07l1.65-6.73c0-.1.24-1.2.24-1.2,0-.22.06-.42.07-.59l0,0a1.83,1.83,0,0,0-.18-.19,6.28,6.28,0,0,0-.56-.41l-.87-.6ZM54.63,24.24a19.86,19.86,0,0,1,4.79,4.09l.48-2.06.06-.5c.05-.24.08-.42.1-.59s0-.27,0-.36a2.58,2.58,0,0,0,0-.59.4.4,0,0,0,0-.1l-.27-.24a3.07,3.07,0,0,0-.3-.21l-1.91-1.17,1.74-1.41.75-.58a18.94,18.94,0,0,1-3.31.28h0l-.15.06L55,20.76l-1.33-.12a16,16,0,0,1-3.72-1l-.1,0c-.9-.34-2.08-.83-3.5-1.43a3,3,0,0,0,.25.42,9.06,9.06,0,0,0,1.82,1.79c.2.15.69.5.93.64.74.43,3.22,2,5.17,3.16Zm-23.22-12a2.8,2.8,0,0,0-1.88.65,1.72,1.72,0,0,0-.73,1.36,1.83,1.83,0,0,0,.51,1.4,2.74,2.74,0,0,0,1.71.68,3.19,3.19,0,0,1,2,.74l0,0c0-.22.05-.4.08-.58l0-.19a13.29,13.29,0,0,1,.69-2.13c.16-.39.36-.82.59-1.29-.44-.16-.82-.29-1.16-.38H32.5l-.11-.21A6,6,0,0,0,31.41,12.24Z"/><path d="M109.84,46.27A4.8,4.8,0,0,0,108,50,3.35,3.35,0,0,0,109,52.61h0a4,4,0,0,0,2.88,1.06,7.37,7.37,0,0,0,4.75-1.58,4.47,4.47,0,0,0,2-3.53,3.47,3.47,0,0,0-1.16-2.76h0a4.86,4.86,0,0,0-3.3-1.1A6.44,6.44,0,0,0,109.84,46.27Z"/><path d="M83.37,70.7a6.2,6.2,0,0,0-1.84.37c-1.24.56-2.12.95-2.65,1.15a4.59,4.59,0,0,1-1.38.38,3,3,0,0,1-.63.07h-.76A5.63,5.63,0,0,1,71.87,71a6.11,6.11,0,0,1-1.54-4.44,6.86,6.86,0,0,1,1.25-4.14,7.38,7.38,0,0,1,3.68-2.47,5.52,5.52,0,0,0-1,2.46,3.78,3.78,0,0,0,0,.49A4.06,4.06,0,0,0,75.5,66a4.6,4.6,0,0,0,3.31,1.26A5.18,5.18,0,0,0,84.12,62a6,6,0,0,0-2.44-5,10.36,10.36,0,0,0-6.43-2,16.27,16.27,0,0,0-11.59,4.61,14.65,14.65,0,0,0-5.07,10.86,10.78,10.78,0,0,0,.43,3.2,10,10,0,0,0,1.37,2.89,11.37,11.37,0,0,0,1.5,1.77,11.75,11.75,0,0,0,8.36,3.28A14.75,14.75,0,0,0,74.52,81a18.22,18.22,0,0,0,3.57-1.47,21.62,21.62,0,0,0,3.52-2.41,22.27,22.27,0,0,0,1.66-1.57,12.28,12.28,0,0,1,.47-4.18l.17-.58a1.93,1.93,0,0,0-.53-.08Z"/><path d="M103.54,57.69a1.17,1.17,0,0,0-.33-1,1.8,1.8,0,0,0-1.18-.34h0l-3.67,0,.08-.5c.05-.29.63-2.55.63-2.55s.36-1.18.45-1.4c0,0,.13-.33.16-.43v0a6.94,6.94,0,0,0,.29-.87,2.76,2.76,0,0,0,.09-.61v-.16a.81.81,0,0,0-.26-.62,1.26,1.26,0,0,0-.89-.32h0A6.58,6.58,0,0,0,96.06,50h0a43.63,43.63,0,0,0-5.19,3.85c-2,1.69-3.43,2.93-4.19,3.67A4,4,0,0,0,85.31,60a1.73,1.73,0,0,0,.41,1.26h0a2.57,2.57,0,0,0,1.49.56l.62,0s-.48,1.7-.52,1.87h0s-.41,1.33-.52,1.72c0,0-.27.89-.45,1.44h0c-.45,1.33-.82,2.41-1.1,3.26-.18.57-.33,1-.42,1.38h0a12.91,12.91,0,0,0-.52,3.17,4.8,4.8,0,0,0,.11,1.21,5.37,5.37,0,0,0,1.94,3.15,8,8,0,0,0,5.29,1.79c.3,0,.58,0,.85,0h0c.28,0,.56,0,.85-.08h0A14.74,14.74,0,0,0,96.69,80a12.25,12.25,0,0,0,3-1.52l0,0h0a2.84,2.84,0,0,0,.39-.24h0l.39-.29a10,10,0,0,0,1.58-1.49.35.35,0,0,1,0,0c0-.17,0-.35,0-.57v0c0-.17.13-.85.18-1.24v-.1l.08-.3a.56.56,0,0,0-.16,0h0a2,2,0,0,0-.52.09h0a4.42,4.42,0,0,0-.78.26h0c-.57.2-1.08.38-1.52.48a4.79,4.79,0,0,1-1.25.16h0a3.47,3.47,0,0,1-2.49-.86,3,3,0,0,1-.86-2.3,8.73,8.73,0,0,1,.11-1.33h0a11,11,0,0,1,.32-1.45h0c.18-.75.34-1.4.47-1.94h0c.14-.53.23-.94.28-1.19h0c.27-1.27,1-4.08,1-4.08l3.73,0a2.32,2.32,0,0,0,2.09-1h0A6,6,0,0,0,103.54,57.69Z"/><path d="M118,76.86a10.22,10.22,0,0,1-.79-1.9l-.26.09h0a2.93,2.93,0,0,1-1,.15,2.29,2.29,0,0,1-1.78-.79h0a3,3,0,0,1-.62-2,5.35,5.35,0,0,1,0-.56h0c0-.22.06-.45.11-.68l0-.08s2.65-11.27,2.65-11.46,0-.45,0-.67a2.52,2.52,0,0,0-.87-2h0a3.61,3.61,0,0,0-2.41-.75,10.2,10.2,0,0,0-4.08.87,15.53,15.53,0,0,0-3.62,2.4,3.14,3.14,0,0,1,.72.75h0a2.7,2.7,0,0,1,.43,1.52,6.46,6.46,0,0,1-.09,1h0c-.05.34-.12.73-.22,1.17h0l-2.54,9.58a18.08,18.08,0,0,0-.46,2.24h0c0,.19,0,.36,0,.52s0,.26,0,.39a4.32,4.32,0,0,0,1.55,3.14,6.26,6.26,0,0,0,4.17,1.42,10.5,10.5,0,0,0,2.16-.23,19.17,19.17,0,0,0,2.38-.68c.47-.21,1-.44,1.47-.7s1-.52,1.46-.82h0a5.49,5.49,0,0,0,.86-.62c.26-.24.95-.86,1-1C118.18,77.15,118.09,77,118,76.86Z"/><path class="cls-2" d="M116.14,25.16h0a1.68,1.68,0,0,0-1.29-.58,3.47,3.47,0,0,0-2.64,1.31h0a8.06,8.06,0,0,0-1.71,3.46l-.16.62.64-.09a12.3,12.3,0,0,0,4.14-1.14h0a3.21,3.21,0,0,0,1.11-.93,2.21,2.21,0,0,0,.41-1.26,2,2,0,0,0-.5-1.38Z"/><path d="M121.87,21.59A9.05,9.05,0,0,0,116,19.72a17.25,17.25,0,0,0-11.94,4.44,18.55,18.55,0,0,0-2.25,2.35c-.19.25-.36.5-.53.75s-.41.6-.59.91A12.81,12.81,0,0,0,99,33.64c0,.35-.07.69-.07,1,0,0,0,.05,0,.08q0,.43,0,.86a9.41,9.41,0,0,0,2.95,6.53,11.06,11.06,0,0,0,7.74,2.92,7.59,7.59,0,0,1,4.62-1.45,7.28,7.28,0,0,1,1.75.24,23,23,0,0,0,5.44-3.11c.4-.31.75-.62,1.08-.92v0l-.17-.39a11.63,11.63,0,0,1-.71-3.43c-.7.43-1.19.71-1.41.83l-.68.38,0,0-.2.1c-.26.13-.54.26-.82.37h0a17.52,17.52,0,0,1-3,1,8.94,8.94,0,0,1-1.94.22h0A4.13,4.13,0,0,1,110.9,38h0a2.86,2.86,0,0,1-1.09-2.35v-.74l.41,0a19.9,19.9,0,0,0,10-2.75,10.34,10.34,0,0,0,2.14-1.8c.05-.14.09-.28.14-.41a13.89,13.89,0,0,1,1.24-2.49c.06-.1.14-.2.21-.3a6.52,6.52,0,0,0,.09-.94A5.57,5.57,0,0,0,121.87,21.59Zm-5.64,6.21a3.21,3.21,0,0,1-1.11.93h0A12.3,12.3,0,0,1,111,29.87l-.64.09.16-.62a8.06,8.06,0,0,1,1.71-3.46h0a3.47,3.47,0,0,1,2.64-1.31,1.68,1.68,0,0,1,1.29.58h0a2,2,0,0,1,.5,1.38A2.21,2.21,0,0,1,116.23,27.8Z"/><path d="M146.61,35.53l-.46.21c-1.18.72-1.91,1.16-2.21,1.32l-.9.49h0c-.26.13-.53.26-.82.37a16.18,16.18,0,0,1-3,1,8.21,8.21,0,0,1-1.94.22h0a4.13,4.13,0,0,1-2.64-.88h0a2.84,2.84,0,0,1-1.09-2.35v-.74l.41,0a19.9,19.9,0,0,0,10-2.75c2.58-1.66,3.8-3.61,3.83-5.95a5.55,5.55,0,0,0-2.19-4.6A9.07,9.07,0,0,0,139.75,20,17.84,17.84,0,0,0,125,27.57c-.1.15-.21.29-.3.44a13,13,0,0,0-1.15,2.3c-.07.19-.13.38-.2.57a13,13,0,0,0-.63,3.2c0,.13,0,.26,0,.38s0,.31,0,.46h0c0,.16,0,.3,0,.46a10.69,10.69,0,0,0,.68,3.63c.05.15.12.29.19.43s.12.28.2.42l.11.2a9.33,9.33,0,0,0,1.78,2.32,11.11,11.11,0,0,0,7.87,2.92,16.18,16.18,0,0,0,5.87-1.06A23.07,23.07,0,0,0,145.16,41a17.8,17.8,0,0,0,1.59-1.42c0-.16,0-.32,0-.47a12.41,12.41,0,0,1,.6-3.69A1.48,1.48,0,0,0,146.61,35.53Zm-12.39-6a8,8,0,0,1,1.71-3.46,3.48,3.48,0,0,1,2.64-1.3,1.72,1.72,0,0,1,1.3.58h0a2,2,0,0,1,.49,1.38,2.18,2.18,0,0,1-.41,1.26,3.15,3.15,0,0,1-1.11.93h0a12.36,12.36,0,0,1-4.12,1.13l-.63.09Z"/><path d="M166.21,37.85a2.66,2.66,0,0,0-.65.1,5.65,5.65,0,0,0-.87.29,14.21,14.21,0,0,1-1.48.47,4.58,4.58,0,0,1-1.15.16,3.08,3.08,0,0,1-2.19-.74,2.6,2.6,0,0,1-.73-2,8,8,0,0,1,.12-1.28c.05-.46,1.52-6.63,1.62-7s.34-1.31.34-1.31l3.42,0a2.73,2.73,0,0,0,2.44-1.14,6.43,6.43,0,0,0,.83-3.54,1.6,1.6,0,0,0-.49-1.28,2.18,2.18,0,0,0-1.48-.45l-3.15,0c0-.26.13-.62.24-1.09s.24-.93.38-1.4l.13-.43.14-.42a4.49,4.49,0,0,1,.16-.53c.07-.17.13-.33.17-.46a8.76,8.76,0,0,0,.3-.91,2.86,2.86,0,0,0,.11-.73,1.26,1.26,0,0,0-.38-1.09,1.72,1.72,0,0,0-1.18-.43,6.77,6.77,0,0,0-3.1,1.21,45.29,45.29,0,0,0-5.25,3.9c-2,1.69-3.44,2.93-4.2,3.69a4.76,4.76,0,0,0-1.48,2.36,1.41,1.41,0,0,0,0,.37,2.08,2.08,0,0,0,.54,1.59,3.57,3.57,0,0,0,1.89.67s-.52,1.74-.57,1.92c-.13.39-.25.79-.37,1.18s-.26.86-.44,1.44c-.47,1.37-.85,2.47-1.12,3.33l-.15.46-.14.45-.12.41v0a13,13,0,0,0-.52,2.73v.55a.93.93,0,0,0,0,.15c0,.21,0,.42,0,.63s0,.17,0,.26A5.76,5.76,0,0,0,150,43.61a8.44,8.44,0,0,0,5.57,1.9c.3,0,.6,0,.88,0l.89-.09a13.62,13.62,0,0,0,3.43-.78,20,20,0,0,0,3.58-1.87l.4-.3a9.35,9.35,0,0,0,1.89-1.85,2.9,2.9,0,0,0,.65-1.61,1.12,1.12,0,0,0-.29-.83A1,1,0,0,0,166.21,37.85Z"/><path d="M63.55,6.18a15.94,15.94,0,0,0-9.08-2.5,23.28,23.28,0,0,0-6.86,1,22.57,22.57,0,0,0-6.35,3L41,7.83l-.24-.14L40,7.22h0l-.66-.39L39,6.7h0l-.26-.13h0c-.43-.22-.93-.46-1.5-.74l-2.08-.94h0q-3.66-1.6-5.86-2.33a16.87,16.87,0,0,0-4-.88h0a3.31,3.31,0,0,0-.58-.07H24a12.91,12.91,0,0,0-8.7,3,9.39,9.39,0,0,0-3.61,7.38,8.91,8.91,0,0,0,3.22,7.28C17.08,21,20,22,23.75,22a14.89,14.89,0,0,0,6-1.05,5.89,5.89,0,0,0,1.83-1.11,1.5,1.5,0,0,0,.53-1.07v0a.89.89,0,0,0-.24-.6h0a1.89,1.89,0,0,0-1-.26h0a4.3,4.3,0,0,1-2.65-1.13h0a3.38,3.38,0,0,1-1-2.54,3.28,3.28,0,0,1,1.3-2.56,4.35,4.35,0,0,1,2.91-1,7.92,7.92,0,0,1,2,.3h0a22.5,22.5,0,0,1,2.69.95l.44.18-.22.42c-.48.91-.85,1.68-1.12,2.31a11.28,11.28,0,0,0-.59,1.8c0,.26-.08.53-.11.82s0,.6,0,.93A8.14,8.14,0,0,0,35,21.13a9.09,9.09,0,0,0,1.5,2.65A19.75,19.75,0,0,0,38.66,26a29.85,29.85,0,0,0,3.09,2.4h0a39.46,39.46,0,0,1,3.36,2.63h0a8.4,8.4,0,0,1,1.78,2.18h0a3.66,3.66,0,0,1,.4,1.08,6.07,6.07,0,0,1,.1,1.11,4.2,4.2,0,0,1-1.64,3.34A6,6,0,0,1,41.85,40a5.27,5.27,0,0,1-3.42-1.21h0A3.66,3.66,0,0,1,37,35.92a3.17,3.17,0,0,1,.47-1.67,3,3,0,0,1,1.23-1.13h0c.56-.3,1-.53,1.25-.69a1.09,1.09,0,0,0,.4-.34h0l.14-.26a2.18,2.18,0,0,0,0-.34v-.16a2.45,2.45,0,0,0-.73-1.38,7.71,7.71,0,0,0-2.06-1.42,15.55,15.55,0,0,0-6-1.62H31a14.41,14.41,0,0,0-9.9,3.45A10.85,10.85,0,0,0,17,38.8a11.64,11.64,0,0,0,5.34,10.07c3.62,2.57,8.47,3.91,14.54,4a42,42,0,0,0,5-.24l.25-.36.3-.38.14-.17.18-.21.9-1,.06-.07.76-.8.35-.37.08-.09,0-.08.17-.14c5.27-4.47,9.69-5,12.56-5h.3c.15,0,.29,0,.43,0a13.52,13.52,0,0,0,1.13-2.15l-.13-.18a6.16,6.16,0,0,1-.35-.54,6.9,6.9,0,0,1-.95-3.59,7.85,7.85,0,0,1,.08-1.11l0-.21c0-.26.08-.51.12-.76v-.05L59,32.45l.18-.78.15-.64a6.84,6.84,0,0,0-.34-.62,16.56,16.56,0,0,0-5.3-4.9h0c-2.87-1.78-4.58-2.82-5.12-3.13s-1.12-.77-1.12-.77a10.57,10.57,0,0,1-2.14-2.12,3.67,3.67,0,0,1-.75-2.14h0v0l0-.44h0c0-.17.06-.36.11-.58l.11-.51.48.21c2.26,1,4,1.71,5.23,2.17h0a14.29,14.29,0,0,0,3.31.9l1.28.12h0c.43,0,.9,0,1.37,0a13,13,0,0,0,7.64-1.94A6,6,0,0,0,67,12.16C67,9.77,65.91,7.83,63.55,6.18Zm-48,8.4c-1.94-2.3-1.95-6.87,2.5-8C14.63,9.5,15.6,14.58,15.6,14.58Zm6,26.73c-1.88-3.86-.28-10.17,6.24-10.13C22.08,34,21.63,41.31,21.63,41.31ZM57.24,13.54h0a2.6,2.6,0,0,1-1.61.48,8.57,8.57,0,0,1-2.46-.5h0c-1-.32-2.24-.77-3.74-1.34l-.71-.28.6-.47a7.71,7.71,0,0,1,1.33-.84h0c.4-.19.78-.35,1.15-.48h0A4.32,4.32,0,0,1,53,9.84h0a9.8,9.8,0,0,1,1.13-.06,5.44,5.44,0,0,1,2.7.64h0a2.66,2.66,0,0,1,.86.73,1.61,1.61,0,0,1,.32,1A1.76,1.76,0,0,1,57.24,13.54Z"/><path d="M176,77.23a3.54,3.54,0,0,0-1.85-1.85H174c-.76,0-.55.82-.58,1a1.7,1.7,0,0,1-1.72,1.49,3.73,3.73,0,0,1-2.6-1.48c-3.23-3.66,1.76-16.75-3.91-19.25a6.55,6.55,0,0,0-2.57-.59c-2.87,0-4.88,2.1-6,3.09a3.44,3.44,0,0,0-3.91-3.72,10.86,10.86,0,0,0-4.19.84,21.32,21.32,0,0,0-4.67,2.75,2.8,2.8,0,0,1,1.12.9,2.12,2.12,0,0,1,.32,1.21,6.81,6.81,0,0,1-.12,1c-.07.41-.15.91-.24,1.48l-.29,1.26-2.17,9.34-1.86,8,.45-.35a1.82,1.82,0,0,1,.46-.29,4.53,4.53,0,0,1,1.49-.61,9,9,0,0,1,1.87-.15l2.77,0a4.29,4.29,0,0,0,3-1.15,6,6,0,0,0,1.78-3.19l1.86-7.86a6.67,6.67,0,0,1,1.41-2.92,2.31,2.31,0,0,1,1.66-.7.87.87,0,0,1,.5.12c1.06.8-.24,5.66-.79,11-.86,8.21,5.06,13.36,10.84,13.42C173.93,90.13,179,83.53,176,77.23ZM171.18,86s3.37-3.19,2.69-6.85C176.15,82,173.68,85.25,171.18,86Z"/><path d="M59.87,45.73A2.82,2.82,0,0,0,57.93,45h-.28c-3,0-7,.65-11.87,4.76h0l-.05.06L45.6,50l-.38.4-.73.77h0l-1,1.06-.17.2-.13.15-.29.35c-.48.64-1,1.38-1.55,2.2h0c-.55.81-1.28,1.9-2.16,3.24a80.71,80.71,0,0,1-6.72,9.34,13.78,13.78,0,0,1-5.28,4,5.35,5.35,0,0,1-1.35.37,10,10,0,0,1-1.37.09h0a4.93,4.93,0,0,1-3.18-1.11h0A3.39,3.39,0,0,1,20,68.34a3.82,3.82,0,0,1,.15-1.07h0a2.67,2.67,0,0,1,.48-.87h0l1-1.33a1.28,1.28,0,0,0,.32-.77c0-.51-.71-1.26-2.09-1.29a21.06,21.06,0,0,0-8.26,2h0a18.73,18.73,0,0,0-7.2,6.11A14.41,14.41,0,0,0,1.58,79.4a11,11,0,0,0,4,8.76A15.54,15.54,0,0,0,16,91.75a21.4,21.4,0,0,0,11.83-3.26,23.36,23.36,0,0,0,8.43-9.39l.13-.26h0l.14-.26.15-.31.17-.4v0c.47-.86.9-1.7,1.29-2.51s.66-1.46.83-1.89.43-1.06.61-1.51a6.26,6.26,0,0,1,.62-1.15,4.52,4.52,0,0,1,1.41-1.7h0a3.29,3.29,0,0,1,1.8-.47h0a2.43,2.43,0,0,1,1.62.61h0a2,2,0,0,1,.7,1.55v.4l0,.24,0,.33h0l0,.27h0l0,.2h0c-.14.82-.26,1.62-.35,2.38a15.71,15.71,0,0,0-.15,1.89,8.83,8.83,0,0,0,1.59,5.76,5.59,5.59,0,0,0,4.6,2h.19a9,9,0,0,0,6.24-3A10.5,10.5,0,0,0,60,77.81c-.16-.21-.33-.42-.48-.63A11.09,11.09,0,0,1,58,74a.38.38,0,0,0,0-.06l-.4,0h0a2.38,2.38,0,0,1-1.4-.48,3.93,3.93,0,0,1-1.09-1.3,7.84,7.84,0,0,1-.91-4,24.23,24.23,0,0,1,.34-3.54c.21-1.32.48-2.66.79-4h0c.47-1.63,1-3.22,1.52-4.77a22.42,22.42,0,0,1,1.78-4Q59.8,49.69,60.21,49a2.8,2.8,0,0,0,.41-1v-.61A2.17,2.17,0,0,0,59.87,45.73Zm-52.93,29C4.35,79.83,8.09,85.3,8.09,85.3,4.63,83.6,2.29,78.23,6.94,74.68ZM51.47,53.16A49.69,49.69,0,0,0,49,58.7c-.48,1.33-.69,2.15-.85,2.61-.29.83-.55,1.65-.77,2.43l-.13.45L46.83,64,46,63.73c-.23-.06-.45-.12-.69-.15h-.61a2.43,2.43,0,0,0-.5,0h0a5.83,5.83,0,0,0-.8.24l-1,.34.41-.92c.28-.62.56-1.25.88-1.91a18.69,18.69,0,0,1,1.09-2,21,21,0,0,1,6-6.77l1.33-.85Z"/><path d="M97.84,34.79v-.11c0-.35,0-.67.06-1v-.14a13.89,13.89,0,0,1,1.89-5.94c.19-.32.39-.64.63-1l.12-.18c.14-.21.29-.42.45-.62v0c0-.19,0-.38,0-.57a6.57,6.57,0,0,0-1.44-4.48A4.94,4.94,0,0,0,95.72,19a6.19,6.19,0,0,0-4.32,1.53,5.11,5.11,0,0,0-1.79,3.94,4,4,0,0,0,1.06,2.86,3.33,3.33,0,0,0,2.53,1.12h.19a1.87,1.87,0,0,0,.59-.09,5.2,5.2,0,0,1,.79-.15,16.17,16.17,0,0,1-2.56,6.62,5,5,0,0,1-4.1,2.46,2.08,2.08,0,0,1-1.64-.68,3.07,3.07,0,0,1-.58-1.78A6.26,6.26,0,0,1,86,33.58l2.34-10.17,0-.15,0-.17,0-.35,0-.3a3.38,3.38,0,0,0-1.06-2.65,4,4,0,0,0-2.79-1,9.14,9.14,0,0,0-2.47.33,17.63,17.63,0,0,0-2.67,1,17.31,17.31,0,0,0-1.86,1.07c-.61.4-1.2.86-1.79,1.33a8.56,8.56,0,0,1,.92.67,2,2,0,0,1,.71,1.38,7.37,7.37,0,0,1-.11.92c-.08.4-.15.81-.25,1.25L75.5,33.47a6.38,6.38,0,0,1-1.31,2.75,2.69,2.69,0,0,1-2.08.91,2.19,2.19,0,0,1-1.51-.54A1.59,1.59,0,0,1,70,35.33a3.18,3.18,0,0,1,.07-.56c0-.24.1-.51.15-.82l2.5-11a2.85,2.85,0,0,0,.1-.49l0-.43a3.1,3.1,0,0,0-1.2-2.51,4.94,4.94,0,0,0-3.18-1,7.32,7.32,0,0,0-2.27.41,16.29,16.29,0,0,0-2.61,1.12,12.72,12.72,0,0,0-1.76,1c-.55.39-1.09.81-1.62,1.23a4.54,4.54,0,0,1,.55.4l.42.39a2,2,0,0,1,.36.74,4.1,4.1,0,0,1,.09,1c0,.14,0,.31,0,.53s-.06.44-.11.66l0,.26,0,.26L60.38,31.2l-.17.72-.18.78-.68,2.92c-.05.31-.1.63-.15.95a6.66,6.66,0,0,0-.08,1,5.79,5.79,0,0,0,.8,3c.09.16.2.32.3.47l.32.42a8.62,8.62,0,0,0,1,1,8.85,8.85,0,0,0,5.83,2.11,15,15,0,0,0,3.89-.46,15.72,15.72,0,0,0,3.69-1.51L75.8,42l.94-.65.13.16.12.17a7.35,7.35,0,0,0,2.75,2.45,8.79,8.79,0,0,0,3.67.71,15.28,15.28,0,0,0,6.17-1.19,15.49,15.49,0,0,0,5.2-3.69,23,23,0,0,0,3.09-4.17v-.06C97.85,35.35,97.84,35.06,97.84,34.79Z"/><path d="M140.66,59.23a10.06,10.06,0,0,0-7.43-2.88,14.89,14.89,0,0,0-10.89,4.28,14.38,14.38,0,0,0-4.57,10.62,11.7,11.7,0,0,0,.19,2.21,10.68,10.68,0,0,0,.26,1.12,8.88,8.88,0,0,0,1.37,2.77,10,10,0,0,0,1,1.2,10.24,10.24,0,0,0,7.44,2.92,14.7,14.7,0,0,0,10.82-4.25,15.45,15.45,0,0,0,2.35-2.9l2.09-9A9.65,9.65,0,0,0,140.66,59.23Zm-7.07,9.34a3.51,3.51,0,0,1-2.79,1.49,2.41,2.41,0,0,1-1.92-.94h0a3.61,3.61,0,0,1-.68-2.3,5.25,5.25,0,0,1,1.2-3.34,3.46,3.46,0,0,1,2.72-1.5,2.44,2.44,0,0,1,2,.95,3.41,3.41,0,0,1,.69,2.23A5.4,5.4,0,0,1,133.59,68.58Z"/></g></g></svg>